<svg clip-rule="evenodd" fill-rule="evenodd" stroke-linejoin="round" stroke-miterlimit="2" viewBox="0 0 153 131" xmlns="http://www.w3.org/2000/svg" xmlns:xlink="http://www.w3.org/1999/xlink"><title>Disney UX Summit Logo</title><linearGradient id="a" gradientTransform="matrix(145.795 13.2811 -13.2811 145.795 6.25651 66.6126)" gradientUnits="userSpaceOnUse" x1="0" x2="1" y1="0" y2="0"><stop offset="0" stop-color="#8983ba"/><stop offset=".14" stop-color="#9e98cc"/><stop offset=".32" stop-color="#c29abe"/><stop offset=".61" stop-color="#e197b0"/><stop offset=".75" stop-color="#ff9a7d"/><stop offset=".88" stop-color="#ffb467"/><stop offset="1" stop-color="#ffda8e"/></linearGradient><clipPath id="b"><path clip-rule="evenodd" d="m298.035 21.224h198.719v208.629h-198.719z"/></clipPath><g transform="matrix(.769932 0 0 .627909 -229.4666 -13.32643)"><path d="m298.035 21.224h198.719v208.629h-198.719z" fill="none"/><g clip-path="url(#b)"><g transform="matrix(1.29882 0 0 1.59259 298.035 21.2235)"><path d="m77.26 15.948c-1.511.346-5.502.539-5.502.539l-.491 1.564s1.976-.166 3.423-.025c0 0 .465-.039.516.513.026.564-.039 1.154-.039 1.154s-.038.347-.516.436c-.556.09-4.301.257-4.301.257l-.607 2.027s-.219.461.284.333c.465-.128 4.391-.872 4.908-.769.542.128 1.162.872.982 1.539-.207.808-4.133 3.296-6.51 3.13 0 0-1.253.077-2.299-1.604-1.007-1.603.349-4.617.349-4.617s-.607-1.411-.155-1.925c0 0 .258-.218 1.033-.282l.969-1.975s-1.098.064-1.744-.731c-.594-.77-.645-1.103-.18-1.309.49-.256 5.037-1.064 8.162-.962 0 0 1.098-.128 2.066 1.758 0 0 .44.769-.335.949m-11.906 7.707c-.392.939-1.474 1.929-2.779 1.325-1.33-.618-3.43-4.835-3.43-4.835s-.783-1.568-.939-1.517c0 0-.17-.308-.261 1.414-.131 1.71.026 5.04-.692 5.568-.652.514-1.435.295-1.878-.309-.365-.604-.522-2.057-.313-4.59.235-2.533.822-5.233 1.565-6.069.783-.848 1.409-.231 1.644 0 0 0 1.004.9 2.7 3.562l.287.488s1.539 2.533 1.696 2.52c0 0 .13.129.234.026.157-.038.105-.861.105-.861s-.287-2.739-1.722-7.367c0 0-.209-.592-.065-1.158.13-.514.691-.257.691-.257s2.165 1.029 3.222 4.5c1.044 3.472.339 6.622-.052 7.56m-10.285-8.988c-.206.361-.296.864-1.183 1.006 0 0-8.616.606-9.04 1.212 0 0-.283.36.18.451.489.103 2.443.361 3.369.412 1.003 0 4.372.026 5.607 1.547 0 0 .707.722.681 2.359-.025 1.676-.321 2.269-.977 2.875-.682.567-6.52 3.197-10.287-.825 0 0-1.724-1.934.604-3.403 0 0 1.672-1.032 5.954.167 0 0 1.286.464 1.234.941-.077.516-1.067 1.032-2.507 1.006-1.389-.039-2.418-.709-2.212-.593.193.064-1.505-.825-2.032-.219-.514.567-.386.902.129 1.25 1.286.748 6.339.477 7.844-1.212 0 0 .604-.683-.309-1.237-.9-.516-3.523-.838-4.539-.877-.965-.051-4.578 0-5.118-.941 0 0-.514-.67.051-2.501.592-1.933 4.797-2.681 6.623-2.836 0 0 5.015-.206 5.954.825 0 0 .128.232-.026.58m-14.326 11.37c-.595.449-1.861.257-2.228-.257-.354-.449-.481-2.22-.418-5.004.089-2.849.127-6.34.76-6.904.633-.552 1.013-.064 1.266.308.253.385.582.808.633 1.694.076.898.291 5.518.291 5.518s.279 4.209-.291 4.645m1.19-15.182c-1.765.603-2.968.411-3.992-.038-.447.808-.716 1.051-1.049 1.103-.512.051-.959-.77-1.023-1.026-.103-.193-.346-.539-.052-1.322-.997-.897-1.074-2.103-.895-2.911.23-.949 1.919-4.515 7.037-4.939 0 0 2.507-.179 2.942 1.155h.077s2.431 0 2.38 2.18c0 2.181-2.687 4.9-5.425 5.837m2.221-6.117c-1.625.255-4.127 2.404-5.327 4.181 1.845.333 5.069.205 6.514-2.685 0 0 .684-1.816-1.187-1.496m-7.159 1.512c-.512.832-.537 1.331-.294 1.663.602-.895 1.664-2.302 3.264-3.402-1.229.128-2.266.639-2.97 1.739m44.014 19.667c-1.187 2.912-2.192 5.862-2.773 10.282 0 0-.129.863-.838.579-.709-.257-1.87-1.417-2.128-3.053-.258-2.139.696-5.747 2.644-9.896-.568-.901-.967-2.241-.645-4.123 0 0 .516-3.478 3.998-6.622 0 0 .413-.348.645-.232.283.129.167 1.237-.065 1.804-.206.541-1.754 3.221-1.754 3.221s-.967 1.829-.696 3.26c1.831-2.809 5.997-8.504 8.576-6.7 1.638 1.159 1.638 4.896.413 7.06-.968 1.714-3.702 5.257-7.351 4.433m5.477-8.742c-.928 1.034-2.584 2.998-3.889 5.659 1.38-.155 2.722-.943 3.136-1.344.665-.607 2.196-2.248 1.958-4.418 0 0-.151-1.137-1.205.103m-57.862 10.166c-4.575 1.385-8.891.744-11.243.128-.065.949-.168 1.347-.323 1.501-.181.205-1.68 1.052-2.508-.154-.361-.577-.542-1.616-.646-2.566-5.298-2.386-7.754-5.9-7.831-6.029-.13-.128-1.331-1.372-.13-2.912 1.125-1.385 4.847-2.783 8.181-3.335.129-2.822.439-5.003.84-5.965.478-1.154 1.086-.128 1.628.642.44.577.711 3.053.737 5.028 2.171-.103 3.489.051 5.906.513 3.179.539 5.299 2.155 5.131 3.977-.155 1.796-1.81 2.54-2.456 2.591s-1.68-.423-1.68-.423c-.724-.334-.064-.642.776-1.001.93-.449.723-.898.723-.898-.336-1.026-4.458-1.706-8.555-1.706 0 2.245.09 5.965.155 8.133 2.869.539 5.014.423 5.014.423s10.468-.295 10.766-6.927c.323-6.645-10.468-13.007-18.416-15.008-7.935-2.066-12.433-.603-12.821-.411-.426.205-.038.282-.038.282s.426.064 1.202.321c.775.257.155.641.155.641-1.357.462-2.869.193-3.167-.423-.297-.603.194-1.154.776-1.963.543-.833 1.163-.808 1.163-.808 9.822-3.399 21.815 2.694 21.815 2.694 11.217 5.619 13.13 12.225 12.923 14.791-.181 2.527-1.163 6.798-8.077 8.877m-21.647-9.041c-1.105.515-.334 1.339-.334 1.339 2.08 2.227 4.624 3.63 7.064 4.505.283-3.862.257-5.239.257-7.183-3.776.257-5.96.875-6.987 1.339" fill-rule="nonzero"/><path d="m34.695 40.453v34.026h-25.574l9.831.001h.841l3.279.001h.798l3.104.001 2.237.001h.728l2.132.001h.693l1.36.001h.573l-.002.089c0 2.85 2.26 5.174 5.09 5.288l.219.005c2.9 0 5.256-2.319 5.308-5.199v-34.215h27.779l27.513 31.556-28.645 34.038-32.145.001s-32.126 1.212-33.557-31.569v-34.026zm79.132 46.723 16.453 18.871h-32.335zm38.224-45.419v59.007l-25.268-28.983zm-24.889-1.304-13.602 16.162-14.092-16.162z" fill="url(#a)"/><path d="m11.267 130.646c-.62-.239-1.102-.489-1.427-.741-.163-.126-.426-.288-.585-.36-.328-.147-.581-.426-1.141-1.254-.403-.596-.634-1-.714-1.25-.033-.102-.102-.303-.152-.447-.105-.298-.198-.696-.227-.975-.017-.164-.002-.204.108-.287.113-.085.25-.098 1.203-.111.591-.009 1.537.013 2.102.047 1.174.071 1.295.108 1.434.434.129.303.581.767.886.909.501.235.891.332 1.51.377.622.046.913.015 1.206-.125.085-.041.243-.091.351-.112.226-.044.541-.342.658-.624.098-.236.094-.674-.007-.852-.267-.469-1.08-.921-1.998-1.109-.318-.065-.784-.219-.958-.317-.051-.028-.225-.095-.388-.149-.164-.054-.472-.16-.685-.236-.214-.075-.592-.185-.84-.243-.249-.058-.524-.14-.611-.182-.087-.041-.188-.075-.225-.075-.153 0-1.289-.563-1.52-.754-.138-.114-.453-.431-.699-.706-.516-.575-.987-1.395-.991-1.727-.002-.101-.032-.324-.069-.496-.036-.173-.066-.462-.067-.643 0-.18-.033-.478-.074-.662l-.073-.333.189-.789c.258-1.08.32-1.242.676-1.738.472-.661.598-.808 1.004-1.171.388-.347.683-.512 1.542-.863.628-.256.712-.28 1.301-.379 1.158-.195 2.325-.279 2.748-.197.159.03.453.083.654.115.837.138 1.44.328 2.053.649.132.069.325.152.428.184.104.032.243.116.31.187s.222.163.344.205c.255.086.572.324.611.459.014.05.031.071.115.145.379.27.807.983.936 1.252.129.27.508 1.223.548 1.595.026.24.019.268-.079.321-.384.209-.506.226-1.584.226-.785 0-1.142.021-1.368.079-.238.062-.391.069-.694.032-.521-.064-.771-.203-1.137-.633-.338-.397-.438-.465-1.053-.713-.403-.163-.476-.175-.996-.175-.522 0-.592.012-1.005.178-.733.295-.707.27-.922.907-.051.149-.047.184.024.275.045.056.104.153.132.213.089.2 1.299.904 1.739 1.013.15.037.345.102.433.145s.25.095.36.115c.109.021.315.096.456.168.217.11.298.125.53.097.237-.029.342-.008.754.146.264.099.648.264.853.368.204.103.426.188.491.188.118 0 .305.083.825.368.151.082.403.201.561.264.158.062.312.152.343.2.03.047.181.198.336.336.496.442.837.859.837 1.024 0 .08.031.175.068.21.051.049.061.135.041.359-.025.274-.017.31.115.498.078.112.142.222.142.245s.023.108.052.189c.076.216.077 1.107.001 1.18-.039.037-.051.116-.033.225.015.093.006.27-.02.395s-.068.519-.094.875c-.043.618-.053.659-.202.892-.086.134-.177.345-.201.467-.043.221-.203.475-.299.475-.027 0-.108.07-.179.157-.071.086-.147.156-.169.156-.021 0-.073.082-.114.181-.042.1-.11.194-.151.209-.042.015-.177.133-.301.263-.123.129-.261.235-.307.235s-.084.02-.084.043c0 .094-.393.332-.575.349-.107.01-.379.123-.618.257-.36.201-.496.247-.861.295-.239.031-.579.112-.756.181-.508.197-2.017.287-3.011.178-1.163-.127-1.371-.163-1.746-.307zm19.304.122c-1.167-.084-1.787-.164-2.217-.288-.189-.054-.513-.146-.721-.203-.257-.07-.524-.196-.831-.392-.249-.158-.459-.307-.467-.33-.009-.023-.139-.136-.29-.252-.436-.336-.883-.832-1.014-1.126-.065-.146-.209-.399-.32-.562-.11-.164-.231-.378-.267-.477-.036-.098-.085-.193-.109-.209-.024-.017-.087-.258-.14-.536s-.137-.683-.186-.9c-.049-.218-.09-.51-.09-.649 0-.14-.022-.336-.049-.435-.064-.234-.146-1.479-.143-2.179.006-1.898.014-5.259.015-6.383.001-.728.004-1.394.006-1.479.003-.086-.012-.36-.032-.608-.049-.594-.001-.736.273-.814.303-.087 3.491-.074 3.819.015.397.108.431.142.524.535.079.33.163 1.304.158 1.832-.001.128.022.353.051.499.066.329.02.768-.075.726-.047-.02-.072.039-.094.23-.02.169-.052.257-.094.257-.081 0-.164.242-.127.372.015.054.077.155.138.224.136.154.14.304.015.568-.08.17-.09.255-.065.544.016.188.037.646.046 1.017.012.508.036.718.095.851.068.153.072.209.023.424-.04.179-.048.582-.027 1.472.021.899.014 1.271-.026 1.398-.053.164-.046.188.115.426.093.14.181.319.195.398s.044.157.065.172c.022.016.04.103.04.195 0 .113.045.222.137.338.076.093.138.19.138.214 0 .062.547.498.685.546.063.022.279.134.48.249.358.203.376.208.824.202.28-.004.674-.055 1.015-.132.497-.113.592-.152.876-.366.175-.133.421-.369.547-.525.203-.252.232-.317.258-.582.016-.164.06-.462.097-.662.086-.469.087-.512.04-2.595-.021-.97-.037-1.834-.034-1.92.018-.546.076-3.593.074-3.892-.004-.668-.052-1.916-.086-2.269-.032-.326-.026-.361.084-.525.232-.345.205-.342 2.387-.322 2.035.019 2.234.039 2.343.237.051.094.041.135-.085.333-.152.242-.153.296-.006.652.113.274.088 1.188-.041 1.489-.088.208-.089.228-.018.309.043.049.068.137.056.205-.021.125.08 1.539.13 1.825.025.141.009.194-.094.311-.118.134-.122.154-.087.479.02.186.037.572.038.857s.016.542.032.571c.017.028.012.339-.009.69-.024.388-.023.688.003.766.031.092.023.176-.03.301-.066.159-.066.189 0 .35.058.142.067.283.044.721-.016.3-.025.74-.021.979s-.022.578-.058.753c-.081.388-.117.609-.148.915-.013.128-.074.354-.134.502-.061.148-.111.291-.111.317s-.029.115-.065.198c-.036.082-.089.301-.118.485-.051.326-.142.547-.225.547-.023 0-.147.141-.276.312-.13.171-.317.409-.416.527-.099.119-.18.241-.18.27s-.078.102-.173.163c-.109.07-.201.182-.247.303-.064.169-.111.208-.375.314-.191.076-.364.19-.473.312-.227.254-.501.408-.798.449-.133.018-.376.076-.539.128-.164.052-.415.096-.559.097-.147.001-.308.034-.366.076-.151.109-.355.147-.876.161-.254.008-.565.026-.691.041-.126.016-.64-.001-1.143-.037zm96.251-.186c-.925-.242-.937-.247-1.232-.503-.499-.433-1.067-1.23-1.229-1.724-.052-.158-.131-.383-.177-.501-.233-.605-.305-.883-.503-1.952-.097-.523-.225-2.619-.255-4.178-.009-.485.013-1.541.05-2.346.059-1.29.083-1.538.201-2.076.073-.337.166-.774.205-.971.039-.198.089-.385.11-.416.021-.03.083-.211.138-.402.055-.19.16-.441.234-.557s.134-.23.134-.253.092-.212.205-.42c.582-1.076 1.484-1.655 2.767-1.777.5-.048.654-.043 1.049.032.254.048.597.143.761.209s.359.136.432.154c.084.021.275.198.524.484.215.248.463.524.55.612.088.089.19.216.228.282s.125.19.194.275.146.238.17.341.083.362.131.576.123.517.166.674.092.548.108.868c.026.496.044.596.125.682.085.09.098.184.126.897.018.438.054.961.081 1.16.031.224.038.683.02 1.194-.016.457-.039 1.531-.052 2.387-.03 1.998-.095 2.71-.297 3.228-.047.12-.108.377-.136.571-.09.613-.446 1.503-.703 1.754-.029.029-.11.172-.179.319-.219.46-.508.758-.865.892-.172.064-.4.198-.507.298-.136.127-.268.196-.439.229-.414.081-.921.17-1.064.186-.075.009-.557-.094-1.071-.228zm1.858-1.826c.675-.354.952-.774 1.299-1.968.207-.711.227-.825.269-1.537.025-.423.08-1.225.123-1.784.087-1.129.089-1.655.011-3.254-.03-.602-.051-1.34-.048-1.64.008-.662-.047-1.099-.257-2.056-.116-.53-.194-.778-.285-.911-.069-.101-.151-.242-.183-.314-.129-.294-.652-.741-1.003-.857-.062-.02-.236-.092-.387-.158-.254-.113-.308-.118-.777-.078-.278.024-.575.077-.66.119-.239.116-.525.433-.709.786-.091.175-.216.38-.276.455-.085.106-.136.286-.222.781-.061.355-.152.835-.202 1.067-.085.393-.087.444-.023.722.051.228.055.325.017.408-.128.273-.174.629-.124.947.027.172.038.476.023.677-.014.2-.03.891-.034 1.536-.004.644-.035 1.476-.069 1.848-.064.707-.037 1.13.099 1.543.038.117.061.392.059.729-.003.594.02.678.504 1.804.23.534.79 1.07 1.29 1.233.376.123 1.248.068 1.565-.098zm-72.571 1.841c-.208-.029-.324-.075-.404-.16-.243-.26-.248-.299-.245-1.97.002-.853.002-1.633.002-1.734-.012-1.776.007-3.278.044-3.437.026-.109.053-.622.06-1.139.012-.86.006-.942-.067-.958-.105-.024-.311.164-.409.373-.047.1-.079.287-.08.474-.001.279-.029.365-.296.916-.163.337-.309.709-.326.834-.028.199-.248.588-.392.693-.058.042-.171.602-.173.862-.001.117-.03.317-.066.444-.036.128-.078.3-.094.383-.016.082-.105.239-.197.348-.266.313-.355.435-.399.547-.023.058-.042.387-.044.733-.001.486-.019.663-.079.784-.042.087-.096.287-.119.445-.024.158-.066.358-.093.445-.027.086-.059.218-.072.294-.018.103-.06.145-.167.17-.14.032-.143.039-.121.265l.023.232-.225.056c-.28.069-.385.069-.494.002-.063-.038-.137-.03-.27.031-.151.069-.325.08-.995.063-.716-.018-.828-.033-.958-.126-.201-.145-.303-.31-.399-.648-.045-.158-.109-.37-.142-.471-.032-.1-.072-.272-.087-.381-.016-.11-.079-.307-.14-.44-.062-.132-.112-.294-.112-.359 0-.19-.179-1.014-.295-1.357-.058-.172-.12-.431-.137-.575s-.07-.356-.116-.471c-.097-.24-.297-.959-.342-1.229-.045-.267-.242-.991-.328-1.201-.04-.1-.09-.365-.109-.589-.022-.246-.081-.521-.148-.69-.062-.154-.127-.38-.145-.501-.036-.245-.167-.433-.271-.387-.037.016-.079.126-.094.247-.051.424-.122 1.318-.117 1.473.003.086.016.416.029.732l.024.576-.166.207c-.179.224-.174.181-.087.851.027.202.019.226-.083.271-.149.065-.181.179-.145.514.02.186.057.295.11.327.143.088.198.33.142.628-.027.147-.05.455-.05.685 0 .343.018.445.096.567.076.118.086.17.047.253-.027.058-.079.118-.115.134-.054.023-.062.107-.041.421.024.369.018.408-.117.682-.079.16-.145.344-.146.409-.002.069-.064.174-.147.25l-.144.13-1.143.005c-.628.003-1.349.024-1.601.047-.438.04-.466.036-.626-.083-.327-.246-.322-.202-.334-3.228-.005-1.487-.026-3.645-.046-4.796s-.032-2.858-.027-3.793c.01-1.837.043-5.426.05-5.53.002-.035.065-.1.139-.144.218-.13 5.394-.126 5.577.003.017.013.046.099.063.192s.091.29.163.437c.073.148.132.328.132.402 0 .18.044.298.111.298.086 0 .237.268.272.482.017.107.062.229.098.271.074.085.089.223.027.25-.022.009-.049.175-.059.367-.016.298-.007.353.059.373.091.028.176.334.177.633 0 .113.059.36.13.549.169.446.27.781.372 1.234.157.702.187.901.157 1.038-.02.093.001.207.066.349.053.117.096.272.096.345 0 .075.07.231.16.357.088.123.16.253.16.29 0 .084.24.578.439.901.083.136.164.306.18.378.016.071.057.157.093.191.072.069.211.562.176.626-.012.023.027.108.088.189.097.129.125.14.24.094.101-.041.147-.11.205-.313.041-.143.108-.331.148-.417s.073-.2.074-.252c0-.052.022-.142.048-.198.027-.057.117-.407.201-.777.084-.371.183-.74.222-.822.067-.144.269-1.114.33-1.587.016-.129.067-.306.111-.392.094-.181.32-.919.32-1.043 0-.046.041-.217.091-.38.05-.162.121-.544.159-.849.072-.574.134-.833.254-1.052.078-.142.293-.993.342-1.352.04-.29.211-.617.421-.804.141-.124.209-.145.509-.155.191-.006.429-.008.529-.004.1.003 1.053.021 2.118.038 1.064.018 2.013.053 2.108.078.096.024.234.1.308.168.123.113.137.16.163.542.061.917.03 1.792-.067 1.875-.116.099-.139.243-.066.419.105.256.131 3.024.03 3.267-.066.158-.065.185.008.34.064.136.073.24.048.543-.027.334-.019.39.068.517.123.18.125.436.005 1.007-.11.529-.115.808-.015.982.087.153.102.809.047 2.077-.028.632-.022.803.033.941.075.185.126.875.065.875-.021 0-.038-.106-.038-.236 0-.211-.011-.235-.105-.235-.166 0-.214.101-.214.448 0 .245.022.355.093.458.051.074.094.201.097.282.007.218-.056.803-.105.991-.038.141-.025.202.09.418.118.224.139.33.181.908.042.58.039.664-.028.749-.054.069-.113.087-.215.065-.077-.017-.242.003-.367.045-.124.041-.421.099-.659.129-.561.071-2.13.102-2.505.05zm7.32-.208c-.278-.014-.531-.045-.563-.069-.129-.093-.302-.577-.3-.839 0-.143 0-1.743 0-3.555-.002-6.978-.001-7.935.022-10.306.012-1.345.037-2.471.055-2.503s.166-.106.33-.163c.284-.099.396-.102 2.49-.081 3.013.032 3.172.049 3.272.353.03.092.097.276.149.41.08.206.086.267.04.393-.046.125-.04.187.037.389.05.132.113.373.139.537.027.164.08.336.118.384.038.047.069.12.069.161s.028.121.063.177c.035.057.086.278.114.492.066.501.218 1.12.47 1.912.048.152.088.316.088.364 0 .047.052.196.115.33s.115.27.115.302.028.089.062.128.076.204.093.368c.031.292.089.483.263.859.048.104.088.267.088.363.001.096.042.276.092.401.05.124.091.333.091.464 0 .174.034.295.126.449.07.115.139.222.155.236.015.014.064.108.108.207.045.1.124.235.176.299.315.389.748-.233.858-1.233.061-.555.133-.893.271-1.271.126-.345.441-1.654.531-2.206.066-.405.138-.679.603-2.283.087-.3.179-.674.204-.831.062-.381.353-1.463.486-1.803.073-.188.145-.289.229-.326.141-.06 4.124-.06 5.139 0 .819.048.784.007.799.945.008.544-.006.744-.063.897-.056.152-.065.285-.041.574.021.256.012.434-.028.558-.052.164-.047.202.048.382.133.251.191 1.112.089 1.321-.048.098-.063.634-.071 2.512-.008 2.266-.031 3.092-.087 3.195-.014.025.017.139.068.253.109.24.12.47.031.668-.101.228-.124.589-.051.828.036.118.08.471.097.783.029.544.026.57-.068.627-.122.073-.126.178-.012.3.084.09.111.223.172.857.029.291.01.39-.155.803-.061.153-.059.175.027.279.165.2.248.864.124.98-.036.035-.088.137-.115.227-.032.11-.113.207-.242.289-.185.12-.234.125-1.194.14-.551.008-1.02.028-1.044.045-.023.016-.352.039-.732.051l-.689.021-.211-.185c-.243-.214-.26-.268-.25-.793.004-.214.003-1.756-.003-3.425-.007-1.921.008-3.217.039-3.529.097-.958.049-1.765-.104-1.765-.085 0-.212.284-.212.475-.001.281-.09.572-.184.6-.101.03-.122.081-.229.56-.044.2-.148.526-.229.726-.081.199-.188.57-.237.825-.05.255-.126.524-.17.598s-.13.263-.19.42-.156.405-.215.551c-.058.146-.119.362-.136.48-.016.118-.047.214-.068.214-.066 0-.128.366-.16.935-.033.571-.158 1.037-.278 1.037-.035 0-.063.007-.063.015s-.093.318-.207.688-.207.758-.207.863c0 .253-.039.355-.135.355-.043 0-.181.062-.305.138l-.226.139-1.214.02c-1.308.021-1.41.005-1.559-.239-.046-.075-.132-.335-.191-.577-.06-.243-.186-.64-.28-.883-.106-.271-.19-.591-.219-.832-.045-.368-.098-.562-.266-.977-.105-.26-.15-.451-.224-.951-.037-.247-.107-.528-.156-.622-.049-.095-.102-.324-.118-.51-.017-.185-.067-.454-.112-.597-.045-.142-.107-.376-.136-.519-.03-.142-.093-.343-.14-.446-.09-.197-.2-.643-.255-1.033-.018-.128-.093-.337-.166-.463s-.133-.259-.133-.296c0-.139-.11-.331-.189-.331-.117 0-.192.187-.158.394.019.114.005.229-.042.331-.116.252-.14.601-.053.751.06.104.064.154.022.259-.037.093-.038.169-.002.274.027.08.062.367.078.638.027.454.02.524-.095.873-.111.337-.119.402-.071.582.084.315.074 1.944-.015 2.593-.065.47-.067.626-.018 1.13.042.435.043.627.005.752-.028.093-.065.244-.081.336-.031.172-.083.235-.207.252-.809.109-2.41.17-3.285.125zm22.329.012c-.016-.018-.39-.047-.831-.065-.953-.038-.947-.034-1.066-.606-.068-.327-.075-.5-.044-1.124.035-.703.04-2.093.02-5.297-.006-.885.013-1.673.047-2.02.037-.372.046-.796.024-1.218-.019-.356-.038-1.592-.042-2.746-.004-1.155-.017-2.567-.028-3.139-.017-.928-.01-1.055.062-1.179.102-.175-.115-.164 2.768-.143 1.632.012 1.894.035 2.069.179.116.096.147.672.057 1.051-.057.236-.055.318.02.725.069.38.08.619.061 1.391-.012.513-.041 1.008-.065 1.099-.023.091-.056.312-.073.492-.027.285-.019.345.065.464.125.179.125.496.001.765-.081.175-.087.223-.037.325.037.075.055.275.049.534-.005.228-.011.532-.012.674-.001.143-.003.399-.004.57-.005.605-.005.884.002 1.114.016.529-.032 2.683-.064 2.86-.045.25.012.747.095.841.045.05.066.191.066.433 0 .284-.019.383-.092.478-.103.134-.107.215-.045.984.028.355.028.55-.002.562-.059.022-.058.319.001.319.026 0 .046-.027.046-.06 0-.131.059.016.096.238.028.169.02.294-.028.449-.037.118-.068.279-.068.356 0 .213-.221.508-.431.575-.099.031-.439.05-.759.043-.319-.007-.755.014-.97.048-.425.067-.842.08-.888.028zm27.466.205c-.332-.174-.423-.383-.417-.956.005-.423.213-1.557.444-2.419.06-.225.109-.433.109-.463 0-.044.668-1.103.886-1.405.083-.115 1.155-1.353 1.37-1.583.101-.108.207-.196.235-.196s.062-.034.075-.074c.014-.041.104-.135.2-.208.097-.074.282-.282.412-.463.13-.18.341-.422.469-.537.461-.415.895-.895 1.048-1.16.085-.149.235-.343.333-.433.2-.183.692-1.07.771-1.391.099-.403.176-.946.208-1.465.035-.578-.037-1.471-.139-1.727-.034-.086-.113-.345-.176-.576-.063-.235-.168-.492-.239-.586-.209-.279-.568-.461-1.151-.585-.619-.131-.846-.137-1.147-.032-.122.043-.309.078-.415.078-.19 0-.332.086-.78.47-.227.194-.334.436-.579 1.302-.036.125-.075.349-.088.497s-.04.352-.059.453c-.039.199-.033.516.015.899.03.236.026.25-.112.346-.223.157-.828.29-1.13.247-.441-.061-.442-.062-.478-.93-.034-.801.025-1.308.198-1.714.043-.101.122-.387.175-.637.149-.698.419-1.303.703-1.577.826-.798 1.403-1.084 2.5-1.24.762-.109 1.067-.09 1.746.104.766.22 1.218.508 1.784 1.137.162.179.519.847.639 1.193.067.192.16.423.209.514.056.106.087.262.087.431 0 .151.029.308.067.366.04.062.067.222.068.408.001.168.033.431.071.583.063.251.063.328-.001.793-.107.782-.32 1.798-.376 1.798-.018 0-.09.084-.161.186-.092.134-.14.279-.169.519-.038.309-.188.708-.267.708-.019 0-.216.206-.437.458-.222.252-.455.508-.517.57-.063.061-.179.237-.26.392-.08.155-.242.375-.359.49s-.25.251-.296.301c-.045.051-.102.092-.126.092s-.114.071-.199.157-.178.157-.206.157c-.069 0-.603.62-.705.819-.073.143-.144.211-.426.411-.244.173-.337.268-.4.41-.039.087-.191.298-.338.468-.146.17-.266.33-.266.356 0 .025-.073.088-.161.141-.089.052-.293.271-.454.485l-.292.39v.538c0 .62.049.755.307.854.115.044.589.059 1.594.053.787-.006 2.012-.014 2.723-.019.71-.005 1.365.008 1.455.029.231.055.539.394.539.594 0 .085-.024.183-.054.217-.029.034-.058.194-.064.356-.005.162-.029.317-.054.345-.024.028-.255.088-.514.132-.688.12-4.778.144-5.365.032-.242-.046-.482-.062-.59-.04-.099.021-.426.053-.725.073-.299.019-.574.05-.612.068-.037.017-.098.016-.136-.004zm24.947-.179c-.01-.011-.804-.031-1.764-.044s-1.791-.035-1.847-.05c-.147-.038-.166-.201-.112-.974.071-1.022.254-2.129.42-2.547.124-.31.616-1.118.73-1.199.023-.016.122-.163.219-.326.214-.359.622-.831.961-1.113.137-.115.352-.337.478-.493.125-.157.288-.346.363-.42s.445-.479.822-.899c.377-.421.746-.818.82-.882.175-.151.351-.355.633-.734.768-1.032.916-1.419 1.027-2.688.076-.859.043-1.606-.084-1.916-.055-.134-.1-.295-.1-.358 0-.126-.195-.537-.286-.602-.031-.023-.115-.121-.185-.219-.257-.356-.399-.441-1.04-.624l-.612-.174-.545.138c-.301.076-.597.138-.659.138-.147 0-.498.407-.65.754-.435.995-.472 1.162-.566 2.523-.039.565-.11.716-.336.716-.072 0-.194.037-.271.082s-.246.095-.376.11c-.26.03-.263.029-.547-.367l-.162-.225-.004-.746c-.005-.847.061-1.297.269-1.845.074-.195.16-.447.192-.561.153-.551.733-1.327 1.307-1.75.392-.289.785-.439 1.467-.56.884-.156 1.535-.127 2.331.106.876.257 1.675 1.001 2.143 1.996.178.381.23.582.398 1.549.147.852.15.889.103 1.495-.04.509-.067.65-.152.78-.083.128-.109.256-.133.659-.033.539-.056.608-.474 1.427-.116.228-.211.44-.211.472 0 .113-.143.384-.251.475-.059.05-.191.149-.293.219-.101.07-.185.152-.185.181-.001.03-.135.218-.299.418-.164.199-.33.417-.37.483s-.218.244-.395.397c-.178.152-.472.442-.654.645-.182.202-.346.368-.364.368-.035 0-.449.444-.655.703-.191.24-.391.431-.655.623-.134.097-.253.177-.264.177s-.12.111-.241.247c-.2.223-.444.588-.669 1-.084.156-.187.808-.177 1.132.007.22.158.409.372.466.089.023 1.391.048 2.893.053 1.502.006 2.771.025 2.821.041.23.075.484.238.55.353s.066.151.002.403c-.053.207-.135.353-.328.581l-.257.305-.575.032c-.316.017-1.148.028-1.849.023-.701-.004-1.371.009-1.49.03-.118.021-.223.028-.234.016zm-41.85-.056c-.056-.046-.122-.17-.146-.276-.037-.159-.062-3.103-.041-4.682.004-.214-.009-1.101-.027-1.972-.064-3.052-.068-3.82-.022-4.497.039-.584.035-.724-.029-.973-.087-.341-.143-.385-.592-.474-.342-.067-2.735-.07-2.951-.003-.156.049-.765-.1-.879-.215-.215-.217-.228-.342-.24-2.294l-.011-1.839.258-.293.905.027c.499.015 3.497.04 6.664.054 3.167.015 5.922.043 6.122.064.327.033.37.05.422.167.076.17.028 1.365-.062 1.569-.118.265-.128.586-.027.856.08.213.087.295.051.582-.028.227-.025.391.009.509.102.35-.071.599-.412.593-.106-.001-.202.029-.236.076-.041.056-.146.077-.38.075-.178-.002-.946-.005-1.707-.008l-1.383-.004-.21.133c-.115.073-.225.122-.244.109-.127-.089-.183 1.026-.116 2.301.046.885.003 1.364-.14 1.538-.148.182-.145.702.004.702.115 0 .16.638.064.917-.08.232-.056.575.054.777.106.195.106.189.076 1.302-.016.586-.032.703-.107.797-.116.146-.12.566-.007.708.068.085.079.185.069.616-.006.282.007.879.029 1.325.039.769.036.821-.052.986-.051.096-.106.262-.123.369-.055.351.032.338-2.425.368-.804.01-1.596.035-1.759.056-.238.03-.318.02-.399-.046zm53.929.008c-.058-.032-.145-.147-.193-.254-.081-.182-.087-.322-.087-1.942 0-2.047.009-1.997-.397-2.141-.199-.07-.378-.088-.759-.076-.957.031-2.863.025-3.692-.011-.962-.042-1.019-.066-1.149-.481-.162-.517-.05-1.236.284-1.829.1-.178.273-.532.384-.787.11-.256.288-.6.395-.765.106-.165.24-.406.296-.536.057-.13.146-.289.198-.352.051-.064.154-.285.229-.491.131-.365.25-.598.499-.973.067-.1.188-.334.27-.519.081-.186.184-.398.228-.471s.115-.237.159-.364c.045-.127.179-.417.298-.646.12-.229.218-.434.218-.456s.066-.155.147-.295.239-.423.352-.63c.112-.206.338-.611.501-.9.164-.288.335-.642.38-.784.045-.143.168-.389.273-.546s.301-.541.436-.853c.171-.395.285-.594.376-.658.297-.207 1.205-.187 1.426.032.118.117.122.138.129.735.072 5.559.084 7.893.042 8.162-.028.174-.018.253.044.362.117.205.108.675-.018.92-.122.236-.124.424-.008.626.05.086.091.199.091.252s.069.176.154.273c.152.173.161.176.548.176.371 0 .4.009.521.147.109.125.133.204.16.54.041.5-.004.889-.117 1.005-.073.077-.154.086-.551.064-.256-.015-.491-.016-.523-.003s-.092.097-.134.188c-.061.13-.079.331-.089.968-.011.801-.063 1.257-.157 1.387-.036.05-.035.089.005.144.029.041.094.292.143.558.14.751.054 1.14-.271 1.23-.239.067-.918.063-1.041-.006zm-1.069-6.277c.531-.073.644-.11.715-.235.057-.097.067-.622.07-3.376.001-1.794.001-3.302-.001-3.352-.006-.155-.215-.172-.394-.033-.088.068-.16.137-.16.153s-.067.113-.149.216-.19.278-.24.389-.201.387-.335.614c-.135.227-.256.478-.27.558-.015.08-.075.199-.136.263-.06.065-.109.135-.109.156s-.101.211-.224.422c-.562.962-.747 1.307-.809 1.507-.088.284-.189.487-.425.85-.107.166-.195.313-.195.328s-.051.114-.113.221c-.062.108-.143.294-.181.415-.037.122-.113.289-.167.373-.13.201-.086.358.133.467.135.068.374.086 1.239.096.589.007 1.085.027 1.101.046.017.019.092.02.168.002s.293-.054.482-.08z" fill-rule="nonzero"/></g></g></g></svg>