<svg height="14" viewBox="0 0 14 14" width="14" xmlns="http://www.w3.org/2000/svg"><path d="m7 0c-3.86640608 0-7 3.13359392-7 7 0 3.8664061 3.13359392 7 7 7 3.8664061 0 7-3.1335939 7-7 0-3.86640608-3.1335939-7-7-7zm4.1179689 7.61796892-2.81914078 2.81914078c-.34179687.3417969-.89550781.3417969-1.23730468 0-.34179688-.3417969-.34179688-.8955078 0-1.23730468l1.32753873-1.32480502h-4.88906217c-.48398429 0-.875-.39101529-.875-.875s.391289-.875.875-.875h4.88906217l-1.35023451-1.35023451c-.34179688-.34179687-.34179688-.89550781 0-1.23730469.34179687-.34179687.89550781-.34179687 1.23730469 0l2.81914075 2.8191408c.2414458.24144536.2797269.50941419.2797269.6433984s-.0382811.40195346-.2570311.61796892z" fill="#1f2937"/></svg>