<?xml version="1.0" encoding="UTF-8"?>
<svg width="404px" height="84px" viewBox="0 0 404 84" version="1.1" xmlns="http://www.w3.org/2000/svg" xmlns:xlink="http://www.w3.org/1999/xlink">
    <title>path1</title>
    <g id="Page-1" stroke="none" stroke-width="1" fill="none" fill-rule="evenodd">
        <path d="M366.816762,74.412396 L366.816762,64.8248156 L375.153779,64.8248156 L383.49082,64.8248156 L383.49082,57.3214836 L383.49082,49.8181516 L360.147139,49.8181516 L336.803434,49.8181516 L336.803434,25.2238836 L336.803434,0.629639231 L361.801133,0.629639231 L386.798832,0.629639231 L387.020742,23.3480506 L387.242651,46.0664856 L395.371277,46.3051034 L403.499879,46.5437212 L403.499879,62.1847062 L403.499879,77.8256676 L400.338341,80.9128338 L397.176803,84 L381.996865,84 L366.816927,84 L366.816762,74.412396 Z M367.650447,32.4336522 C368.796791,31.5949569 370.258724,29.4271911 370.899165,27.6163949 C371.940415,24.6723237 371.906455,23.9928645 370.578306,21.1939917 C369.7614,19.4724792 368.036745,17.5177371 366.745746,16.8501415 C365.454724,16.1825222 363.029222,15.6363032 361.355707,15.6363032 C359.006963,15.6363032 357.666478,16.282795 355.478388,18.4708848 C353.168709,20.780564 352.643807,21.9438995 352.643807,24.7530052 C352.643807,26.6491386 353.282476,29.1752682 354.063083,30.3666555 C354.843713,31.5580192 356.625748,33.0454278 358.023188,33.6719974 C359.420627,34.2985669 361.689469,34.6193551 363.065096,34.384873 C364.440699,34.1504382 366.504127,33.2723238 367.650447,32.4336522 L367.650447,32.4336522 Z M89.7395553,74.1383294 C88.6992602,72.9888189 88.3597882,70.9832433 88.3597882,65.986804 C88.3597882,61.3382595 87.9723398,58.8067416 87.0619576,57.5069991 C85.8950677,55.841023 85.053936,55.654066 78.7249215,55.654066 C72.7973223,55.654066 71.422407,55.3907758 70.0183103,53.986672 C69.1012353,53.0695876 68.3509021,51.5931446 68.3509021,50.7056953 C68.3509021,49.7665618 70.6159678,47.0911454 73.7699763,44.3048687 C76.7504652,41.6718727 79.1890481,38.8596711 79.1890481,38.055503 C79.1890481,37.2513585 76.9291272,34.6277919 74.167003,32.2253549 C71.4048788,29.8229417 68.9218312,26.968296 68.6491188,25.8817427 C68.3271798,24.5990392 68.671806,23.3331385 69.6318591,22.2723446 C70.8866384,20.8858233 72.2194547,20.6385324 78.4372851,20.6385324 C85.0635355,20.6385324 85.8882261,20.4612884 87.0619576,18.785623 C87.9806254,17.4740406 88.3597882,14.9339913 88.3597882,10.0912818 C88.3597882,4.98339149 88.6917569,2.91788372 89.6698936,1.93975645 C90.3904522,1.21917662 91.8539257,0.629639231 92.9220575,0.629639231 C94.3055372,0.629639231 96.128724,2.18829989 99.2608558,6.04872284 C101.67906,9.02921174 104.248627,11.4620401 104.971003,11.4550212 C105.693378,11.4479315 106.667949,11.1666333 107.136712,10.8297515 C107.605478,10.4928696 109.808258,8.06001757 112.031782,5.42342942 C114.719086,2.23691203 116.696085,0.629639231 117.928323,0.629639231 C118.947897,0.629639231 120.402991,1.31571555 121.161862,2.15426903 C122.20216,3.30377949 122.541632,5.30935514 122.541632,10.3057944 C122.541632,14.954339 122.92908,17.4858568 123.839463,18.785623 C125.015668,20.4648805 125.834214,20.6385324 132.57413,20.6385324 C139.547162,20.6385324 140.094471,20.7659118 141.349881,22.6819674 C142.086283,23.8058602 142.471772,25.4091627 142.206525,26.2448803 C141.941281,27.0805979 139.471585,29.7472703 136.718316,32.1707874 C133.965047,34.5943282 131.712372,37.2112541 131.712372,37.9862124 C131.712372,38.7611471 134.150955,41.66034 137.131444,44.4288686 C140.111935,47.1973736 142.550518,50.105287 142.550518,50.8908799 C142.550518,51.6764965 141.800185,53.0695876 140.88311,53.986672 C139.479474,55.3903032 138.104098,55.654066 132.188773,55.654066 C126.91226,55.654066 124.835494,55.9804314 123.851737,56.9641832 C122.856883,57.9590423 122.541632,60.0608497 122.541632,65.6988415 C122.541632,72.6588614 122.41378,73.2071836 120.498195,74.4623315 C119.374304,75.1987215 117.779845,75.582774 116.954953,75.3157499 C116.130064,75.0487258 113.618674,72.5982912 111.374091,69.870316 C109.129507,67.1423408 106.755352,64.7040533 106.098187,64.4518705 C105.430145,64.1955047 103.921288,65.0160501 102.675919,66.3129331 C101.450831,67.5886886 99.0264919,70.2143585 97.2884981,72.1477368 C95.5505019,74.081115 93.4514406,75.6629592 92.6239164,75.6629592 C91.7963899,75.6629592 90.4984293,74.9768829 89.7395553,74.1383294 L89.7395553,74.1383294 Z M157.974034,74.4813085 C156.598422,73.8672878 154.465081,72.2875233 153.233278,70.9706944 C152.001472,69.6538892 150.594596,67.5203433 150.106889,66.2295339 C149.549643,64.7546506 149.220146,54.2421871 149.220146,37.9384037 C149.220146,13.3018808 149.308224,11.8122744 150.967628,8.38439784 C152.132826,5.97742346 153.893493,4.08400785 156.251524,2.70211861 C158.460975,1.40729165 161.069606,0.629639231 163.203653,0.629639231 C165.082298,0.629639231 167.6452,1.01964707 168.898989,1.49633907 C170.152776,1.97303106 174.491616,5.60502187 178.540854,9.56739561 L185.903102,16.7717523 L193.265331,9.56739561 C197.314578,5.60502187 201.653418,1.97303106 202.907195,1.49633907 C204.160996,1.01964707 206.723898,0.629639231 208.602543,0.629639231 C210.736586,0.629639231 213.345216,1.40729165 215.55467,2.70211861 C217.912701,4.08400785 219.673373,5.97742346 220.838552,8.38439784 C222.497958,11.8122744 222.586036,13.3018808 222.586036,37.9384037 C222.586036,54.2421871 222.256552,64.7546506 221.699296,66.2295339 C221.211591,67.5203433 219.804723,69.6543855 218.572924,70.9718524 C217.341101,72.2892957 215.126023,73.8837597 213.650502,74.5150794 C212.17498,75.1464227 209.818154,75.6629592 208.413081,75.6629592 C207.008009,75.6629592 204.537983,75.1112575 202.924116,74.4369266 C201.31025,73.7626193 196.820067,69.9171557 192.945937,65.8914704 L185.902079,58.5720468 L178.935876,65.8594483 C175.089678,69.882983 170.62114,73.7102968 168.958723,74.4049045 C167.302701,75.0968417 164.716431,75.6482834 163.211457,75.6303227 C161.706484,75.6114166 159.349644,75.0953292 157.974034,74.4813085 L157.974034,74.4813085 Z M15.8275805,67.2629613 L6.23998831,59.7236606 L3.11999415,48.7265645 L0,37.7294448 L3.11999415,26.9637113 L6.23998831,16.1979778 L15.9841437,8.41382035 L25.7282992,0.629639231 L37.0616934,0.629639231 L48.3950876,0.629639231 L56.616648,7.49524709 L64.8382084,14.3608549 L62.41467,17.7081209 C61.0817237,19.5491195 58.736806,22.5375253 57.2037441,24.3490542 L54.4163544,27.6427215 L48.5676761,23.30693 C42.8480385,19.0667793 42.592221,18.9711148 36.9729815,18.9711148 C31.3425308,18.9711148 31.1262482,19.0526471 26.2193526,23.0229614 C21.5120788,26.8317945 21.1256442,27.4193231 19.7762474,32.8189808 C18.4100501,38.2858494 18.4126474,38.81614 19.8300114,43.8036697 C21.164326,48.4989595 21.8126162,49.4314051 26.0612226,52.7659803 C30.6942359,56.4022723 30.9434812,56.4877748 36.910093,56.4877748 C42.8917114,56.4877748 43.138102,56.4024613 48.9192857,52.3293928 L54.8215674,48.1710107 L59.1546554,54.1098212 C61.537853,57.3761457 63.6727223,60.5306646 63.8988101,61.1198239 C64.1398762,61.7480477 61.0272696,64.8043735 56.3723844,68.5101451 L48.4348943,74.8292504 L36.9250311,74.8150709 L25.4151703,74.8008913 L15.8275805,67.2629613 Z M236.398359,73.2065928 C235.053667,72.3201598 233.472509,70.7281773 232.884673,69.6688486 C232.296837,68.6094963 231.802562,65.2391886 231.786327,62.1792471 C231.76104,57.4110746 232.059968,56.2553724 233.877665,54.0951926 C235.044144,52.7089077 236.675734,51.3597496 237.503417,51.0970502 C238.785648,50.6900742 238.471878,50.0830015 235.382538,46.9936611 C231.860462,43.4715853 231.756881,43.2157866 231.759848,38.0475625 C231.762151,34.1847526 232.223458,31.9720377 233.443724,29.9705505 C234.368111,28.4543575 236.305058,26.7174366 237.748037,26.1107184 C240.068753,25.1349307 240.180038,24.9467684 238.712103,24.4808765 C237.799367,24.1911652 235.972193,22.8264568 234.651702,21.4481833 C232.631805,19.3398534 232.204434,18.1176492 231.958537,13.7460071 C231.724575,9.58608895 232.011474,7.99944737 233.397192,5.79011194 C234.349181,4.27228831 236.420928,2.49022924 238.001047,1.83003055 C240.181693,0.918901541 244.957971,0.629639231 257.822463,0.629639231 L274.770966,0.629639231 L277.858132,3.79117703 C280.824418,6.82892758 280.945298,7.181596 280.945298,12.7983658 C280.945298,18.384626 280.815792,18.7695292 278.027318,21.4722176 C276.422455,23.0277351 275.10936,24.7159967 275.10936,25.2238836 C275.10936,25.7317942 276.422455,27.4200557 278.027318,28.9755496 C280.822669,31.6849023 280.945298,32.0525538 280.945298,37.7237966 C280.945298,43.4778952 280.856676,43.7303616 277.783761,46.7309854 C274.676507,49.7651202 274.508881,49.8181516 268.022883,49.8181516 C261.532725,49.8181516 261.371079,49.766869 258.250874,46.7201145 L255.078205,43.6220773 L255.637446,55.929716 L256.196686,68.2373546 L252.978265,71.5333143 C249.875809,74.7105205 249.563221,74.8290613 244.301554,74.8239161 C240.312026,74.8190411 238.185381,74.3845805 236.398359,73.2065928 L236.398359,73.2065928 Z M258.598107,28.4027204 C259.884166,27.1705906 260.936405,25.8575193 260.936405,25.4847632 C260.936405,25.1120308 259.851955,24.8070528 258.5265,24.8070528 C256.393025,24.8070528 256.077531,25.1417369 255.775956,27.72501 C255.58855,29.3298959 255.62069,30.6429672 255.847563,30.6429672 C256.074435,30.6429672 257.312048,29.6348503 258.598131,28.4027204 L258.598107,28.4027204 Z M288.448465,62.3237128 L288.448465,49.8181516 L296.322308,49.8181516 C303.420602,49.8181516 304.423969,49.6220015 306.510675,47.8271572 C308.722964,45.9242177 308.839851,45.4437918 309.153786,36.963396 L309.482231,28.0906054 L319.182727,28.3245676 L328.883248,28.5585298 L329.116501,39.1882343 L329.349754,49.8179626 L321.117027,49.8179626 C313.811003,49.8179626 312.70552,50.0152943 311.296099,51.5701974 C309.942687,53.0633959 309.667297,54.9121932 309.433217,64.0757586 L309.158536,74.8290613 L298.803489,74.8290613 L288.448465,74.8290613 L288.448465,62.3237128 Z M296.802285,23.3467744 C295.206545,22.5450405 293.015903,20.5760007 291.934218,18.9711148 C290.340415,16.6064191 290.032034,15.2482805 290.307826,11.8082332 C290.514847,9.22467649 291.36387,6.55819318 292.476892,4.99511324 C293.518921,3.53171535 295.899522,1.81819065 298.010782,1.01189559 C300.547806,0.0429850151 302.694256,-0.219596156 304.81901,0.179013925 C306.648358,0.522205696 309.023287,1.8623835 310.604965,3.44403862 C312.080558,4.91965453 313.666349,7.49775214 314.128956,9.17315755 C314.622261,10.9597777 314.686589,13.4762416 314.284458,15.2589861 C313.9074,16.9307521 312.723457,19.2358702 311.653447,20.3814576 C310.583436,21.5270687 308.694913,22.9914592 307.456709,23.6357059 C306.218506,24.279929 303.967506,24.806462 302.45448,24.8057538 C300.941477,24.8050441 298.397954,24.1484848 296.802214,23.3467744 L296.802285,23.3467744 Z" id="path1" fill="#1F2937" fill-rule="nonzero"></path>
    </g>
</svg>