<?xml version="1.0" encoding="UTF-8"?>
<svg width="990px" height="85px" viewBox="0 0 990 85" version="1.1" xmlns="http://www.w3.org/2000/svg" xmlns:xlink="http://www.w3.org/1999/xlink">
    <title>Combined Shape</title>
    <g id="Page-1" stroke="none" stroke-width="1" fill="none" fill-rule="evenodd">
        <path d="M0.501464844,82.7725814 L0.501464844,1.66359476 L13.2968759,1.66359476 L13.2968759,70.4590058 L46.8112163,70.4590058 L46.8112163,82.7725814 L0.501464844,82.7725814 Z M52.7559964,82.7725814 L52.7559964,1.66359476 L99.1728224,1.66359476 L99.1728224,12.424589 L65.5514075,12.424589 L65.5514075,34.8567114 L88.947201,34.8567114 L88.947201,45.6712429 L65.5514075,45.6712429 L65.5514075,71.2620651 L101.207239,71.2620651 L101.207239,82.7725814 L52.7559964,82.7725814 Z M124.872861,48.508719 L140.023912,48.508719 L132.475155,22.3289867 L124.872861,48.508719 Z M101.851828,82.7725814 L124.979935,1.66359476 L139.006704,1.66359476 L162.134811,82.7725814 L149.767698,82.7725814 L143.075538,59.2697133 L121.821235,59.2697133 L115.129075,82.7725814 L101.851828,82.7725814 Z M179.429495,72.0115871 L187.138864,72.0115871 C194.598393,72.0115871 200.344728,69.3168771 204.37787,63.9274571 C208.339629,58.5737286 210.320509,51.5246528 210.320509,42.7802296 C210.320509,26.1122882 204.984626,16.2971193 194.312861,13.3347229 C192.135678,12.727967 189.744346,12.424589 187.138864,12.424589 L179.429495,12.424589 L179.429495,72.0115871 Z M166.634084,82.7725814 L166.634084,1.66359476 L185.746895,1.66359476 C205.30585,1.66359476 217.119744,9.53357564 221.188578,25.2735374 C222.473472,30.3060422 223.11592,35.6062334 223.11592,41.174111 C223.11592,46.7419886 222.732236,51.4354239 221.964868,55.2544169 C221.197501,59.0734099 219.885837,62.6960995 218.029878,66.1224858 C216.173919,69.548872 213.85397,72.4755769 211.070031,74.9026005 C204.96678,80.1492544 196.525735,82.7725814 185.746895,82.7725814 L166.634084,82.7725814 Z M230.23852,82.7725814 L230.23852,1.66359476 L276.655346,1.66359476 L276.655346,12.424589 L243.033931,12.424589 L243.033931,34.8567114 L266.429725,34.8567114 L266.429725,45.6712429 L243.033931,45.6712429 L243.033931,71.2620651 L278.689763,71.2620651 L278.689763,82.7725814 L230.23852,82.7725814 Z M298.607775,36.7840536 L312.152708,36.7840536 C315.900318,36.7840536 319.023326,35.7668452 321.521733,33.7324284 C324.162905,31.5552455 325.483492,28.2180881 325.483492,23.7209561 C325.483492,16.1900447 319.505161,12.424589 307.548501,12.424589 L298.607775,12.424589 L298.607775,36.7840536 Z M285.812364,82.7725814 L285.812364,1.66359476 L313.062842,1.66359476 C325.590566,1.66359476 333.514084,6.14288093 336.833396,15.1014533 C337.797067,17.7069345 338.278903,20.4016445 338.278903,23.1855833 C338.278903,25.9695221 337.966602,28.5036203 337.342,30.7878777 C336.717399,33.0721352 335.798342,35.1957809 334.58483,37.1588146 C331.907966,41.4417974 327.964052,44.1365074 322.75309,45.2429447 L337.74353,82.7725814 L324.626895,82.7725814 L310.600126,47.5985852 L298.607775,47.5985852 L298.607775,82.7725814 L285.812364,82.7725814 Z M338.334581,62.0001148 L348.61374,58.6272659 C348.649432,58.6272659 348.720815,58.8949523 348.827889,59.4303252 C348.934964,59.965698 349.122344,60.6706056 349.390031,61.5450479 C349.657717,62.4194902 350.032478,63.3831614 350.514314,64.4360613 C350.996149,65.4889612 351.701057,66.5418612 352.629037,67.5947611 C353.557016,68.647661 354.645608,69.6024093 355.894811,70.4590058 C358.67875,72.4220396 362.140827,73.4035565 366.281044,73.4035565 C370.421261,73.4035565 373.463963,72.3863481 375.409151,70.3519313 C377.354339,68.3175145 378.326933,65.8994138 378.326933,63.0976292 C378.326933,60.2958446 378.041401,58.0294329 377.470337,56.298394 C376.899272,54.5673551 375.89991,53.0593883 374.472249,51.7744934 C372.080917,49.633002 367.9407,47.7056598 362.051599,45.9924667 C351.665365,42.9586872 344.991051,38.2652519 342.028654,31.9121607 C340.493919,28.5928491 339.726551,24.6846273 339.726551,20.1874953 C339.726551,16.4041939 341.064983,12.7101212 343.741847,9.10527736 C348.417437,3.14479297 355.05606,0.164550781 363.657717,0.164550781 C370.474798,0.164550781 376.060522,2.21681337 380.414887,6.32133854 C383.52005,9.21235193 385.839999,12.8528873 387.374734,17.2429447 L388.391943,20.0804208 C388.713167,20.9370173 388.927316,21.4902359 389.03439,21.7400766 L378.59462,25.4341493 C376.238979,17.9389294 372.562752,13.3168771 367.565939,11.5679925 C366.316736,11.1396942 365.013995,10.925545 363.657717,10.925545 C356.23388,10.925545 352.521962,14.744538 352.521962,22.382524 C352.521962,25.8802933 353.557016,28.5571575 355.627124,30.4131167 C357.340318,32.0192353 359.588884,33.2862844 362.372822,34.214264 L364.942612,35.0708605 C366.405965,35.5705419 367.209024,35.8382283 367.35179,35.8739198 L369.70743,36.6769791 C375.810681,38.8184705 379.933052,40.7101212 382.074543,42.3519313 C385.215397,44.7789549 387.26766,47.0096751 388.231331,49.0440919 C390.158673,53.2200001 391.122344,57.6279032 391.122344,62.2678013 C391.122344,65.9083366 390.08729,69.6024093 388.017182,73.3500192 C385.233243,78.382524 380.82534,81.6839899 374.793472,83.2544169 C372.473523,83.8611728 369.939425,84.1645508 367.191178,84.1645508 C364.442931,84.1645508 361.864218,83.9147101 359.45504,83.4150288 C357.045863,82.9153475 354.966831,82.2372085 353.217947,81.380612 C351.469062,80.5240154 349.862943,79.5424985 348.399591,78.4360613 C346.936239,77.3296241 345.704881,76.1607267 344.705518,74.9293691 C343.706156,73.6980116 342.831713,72.466654 342.082191,71.2352965 C341.332669,70.0039389 340.734836,68.8350415 340.288692,67.7286043 C339.842548,66.6221671 339.47671,65.6406502 339.191178,64.7840536 C338.905646,63.9274571 338.70042,63.2493181 338.575499,62.7496368 C338.450579,62.2499555 338.370273,62.0001148 338.334581,62.0001148 Z M397.174199,82.7725814 L397.174199,1.66359476 L409.96961,1.66359476 L409.96961,34.8031741 L439.522191,34.8031741 L439.522191,1.66359476 L452.317603,1.66359476 L452.317603,82.7725814 L439.522191,82.7725814 L439.522191,45.5641684 L409.96961,45.5641684 L409.96961,82.7725814 L397.174199,82.7725814 Z M462.009993,82.7725814 L462.009993,1.66359476 L474.805404,1.66359476 L474.805404,82.7725814 L462.009993,82.7725814 Z M524.00831,23.0785087 C524.00831,15.9758956 518.047826,12.424589 506.126857,12.424589 L497.293205,12.424589 L497.293205,36.7840536 L506.126857,36.7840536 C511.623351,36.7840536 515.977717,35.5973105 519.189954,33.2238242 C522.402191,30.8503379 524.00831,27.4685661 524.00831,23.0785087 Z M484.497794,82.7725814 L484.497794,1.66359476 L512.17657,1.66359476 C522.24158,1.66359476 529.290655,4.55460814 533.323798,10.3366349 C535.643747,13.6916381 536.803721,17.7783175 536.803721,22.5966732 C536.803721,31.1626387 534.19824,37.8012621 528.987277,42.5125431 C525.168284,45.9032378 520.13578,47.5985852 513.889763,47.5985852 L497.293205,47.5985852 L497.293205,82.7725814 L484.497794,82.7725814 Z M688.70613,72.0115871 L696.415499,72.0115871 C703.875028,72.0115871 709.621363,69.3168771 713.654505,63.9274571 C717.616264,58.5737286 719.597144,51.5246528 719.597144,42.7802296 C719.597144,26.1122882 714.261261,16.2971193 703.589495,13.3347229 C701.412313,12.727967 699.02098,12.424589 696.415499,12.424589 L688.70613,12.424589 L688.70613,72.0115871 Z M675.910719,82.7725814 L675.910719,1.66359476 L695.02353,1.66359476 C714.582485,1.66359476 726.396379,9.53357564 730.465212,25.2735374 C731.750107,30.3060422 732.392555,35.6062334 732.392555,41.174111 C732.392555,46.7419886 732.008871,51.4354239 731.241503,55.2544169 C730.474135,59.0734099 729.162472,62.6960995 727.306513,66.1224858 C725.450553,69.548872 723.130604,72.4755769 720.346666,74.9026005 C714.243415,80.1492544 705.80237,82.7725814 695.02353,82.7725814 L675.910719,82.7725814 Z M739.515155,82.7725814 L739.515155,1.66359476 L785.931981,1.66359476 L785.931981,12.424589 L752.310566,12.424589 L752.310566,34.8567114 L775.70636,34.8567114 L775.70636,45.6712429 L752.310566,45.6712429 L752.310566,71.2620651 L787.966398,71.2620651 L787.966398,82.7725814 L739.515155,82.7725814 Z M788.985748,62.0001148 L799.264907,58.6272659 C799.300598,58.6272659 799.371981,58.8949523 799.479056,59.4303252 C799.58613,59.965698 799.773511,60.6706056 800.041197,61.5450479 C800.308884,62.4194902 800.683645,63.3831614 801.16548,64.4360613 C801.647316,65.4889612 802.352223,66.5418612 803.280203,67.5947611 C804.208182,68.647661 805.296774,69.6024093 806.545977,70.4590058 C809.329916,72.4220396 812.791994,73.4035565 816.932211,73.4035565 C821.072427,73.4035565 824.11513,72.3863481 826.060318,70.3519313 C828.005506,68.3175145 828.9781,65.8994138 828.9781,63.0976292 C828.9781,60.2958446 828.692567,58.0294329 828.121503,56.298394 C827.550439,54.5673551 826.551076,53.0593883 825.123415,51.7744934 C822.732083,49.633002 818.591866,47.7056598 812.702765,45.9924667 C802.316532,42.9586872 795.642217,38.2652519 792.67982,31.9121607 C791.145085,28.5928491 790.377717,24.6846273 790.377717,20.1874953 C790.377717,16.4041939 791.716149,12.7101212 794.393014,9.10527736 C799.068603,3.14479297 805.707226,0.164550781 814.308884,0.164550781 C821.125965,0.164550781 826.711688,2.21681337 831.066054,6.32133854 C834.171216,9.21235193 836.491165,12.8528873 838.025901,17.2429447 L839.043109,20.0804208 C839.364333,20.9370173 839.578482,21.4902359 839.685557,21.7400766 L829.245786,25.4341493 C826.890146,17.9389294 823.213919,13.3168771 818.217105,11.5679925 C816.967902,11.1396942 815.665161,10.925545 814.308884,10.925545 C806.885047,10.925545 803.173128,14.744538 803.173128,22.382524 C803.173128,25.8802933 804.208182,28.5571575 806.278291,30.4131167 C807.991484,32.0192353 810.24005,33.2862844 813.023989,34.214264 L815.593778,35.0708605 C817.057131,35.5705419 817.86019,35.8382283 818.002956,35.8739198 L820.358597,36.6769791 C826.461847,38.8184705 830.584218,40.7101212 832.72571,42.3519313 C835.866564,44.7789549 837.918826,47.0096751 838.882497,49.0440919 C840.80984,53.2200001 841.773511,57.6279032 841.773511,62.2678013 C841.773511,65.9083366 840.738457,69.6024093 838.668348,73.3500192 C835.884409,78.382524 831.476506,81.6839899 825.444639,83.2544169 C823.12469,83.8611728 820.590592,84.1645508 817.842344,84.1645508 C815.094097,84.1645508 812.515385,83.9147101 810.106207,83.4150288 C807.697029,82.9153475 805.617998,82.2372085 803.869113,81.380612 C802.120228,80.5240154 800.51411,79.5424985 799.050757,78.4360613 C797.587405,77.3296241 796.356047,76.1607267 795.356685,74.9293691 C794.357322,73.6980116 793.48288,72.466654 792.733358,71.2352965 C791.983836,70.0039389 791.386003,68.8350415 790.939859,67.7286043 C790.493715,66.6221671 790.127877,65.6406502 789.842344,64.7840536 C789.556812,63.9274571 789.351586,63.2493181 789.226666,62.7496368 C789.101745,62.2499555 789.021439,62.0001148 788.985748,62.0001148 Z M846.540471,82.7725814 L846.540471,1.66359476 L859.335882,1.66359476 L859.335882,82.7725814 L846.540471,82.7725814 Z M912.179323,27.3614915 C909.859374,16.4041939 905.005327,10.925545 897.617182,10.925545 C889.800738,10.925545 884.322089,15.3691397 881.181235,24.256329 C879.432351,29.2174507 878.557908,35.035169 878.557908,41.7094839 C878.557908,57.7706693 881.966449,67.7642958 888.78353,71.6903634 C890.782255,72.8324921 892.905901,73.4035565 895.154467,73.4035565 C897.403033,73.4035565 899.303606,73.1804845 900.856188,72.7343405 C902.408769,72.2881964 903.711509,71.717132 904.764409,71.0211473 C905.817309,70.3251626 906.736366,69.4239517 907.52158,68.3175145 C908.306793,67.2110772 908.913549,66.10464 909.341847,64.9982028 C909.770146,63.8917656 910.109215,62.5711792 910.359056,61.0364437 C910.751662,58.7164947 910.983657,55.9147101 911.05504,52.63109 L895.47569,52.63109 L895.47569,41.8165584 L923.636302,41.8165584 L923.636302,82.7725814 L913.250069,82.7725814 L913.250069,76.3481072 C910.965812,79.132046 908.467405,81.1129255 905.754849,82.2907458 C902.828144,83.5399491 899.455295,84.1645508 895.636302,84.1645508 C891.817309,84.1645508 888.31954,83.3882602 885.142994,81.8356789 C881.966449,80.2830976 879.218202,78.1505291 876.898253,75.4379733 C874.578304,72.7254176 872.561733,69.5667178 870.848539,65.9618739 C867.457845,58.7878777 865.762497,50.6680562 865.762497,41.6024093 C865.762497,32.9293691 867.386462,25.1486171 870.63439,18.2601531 C874.239234,10.6578586 879.218202,5.4112047 885.571293,2.52019132 C889.033371,0.949764293 892.361605,0.164550781 895.555996,0.164550781 C898.750388,0.164550781 901.302332,0.387622802 903.211828,0.833766842 C905.121325,1.27991088 907.066513,2.08297016 909.047392,3.24294466 C911.028272,4.40291917 912.821771,5.91088603 914.427889,7.76684524 C917.96135,11.7999874 920.852364,17.6712429 923.100929,25.380612 L912.179323,27.3614915 Z M976.908042,51.4532697 L976.908042,1.66359476 L989.649916,1.66359476 L989.649916,82.7725814 L979.477832,82.7725814 L946.713014,20.5622563 L946.713014,82.7725814 L933.97114,82.7725814 L933.97114,1.66359476 L950.460624,1.66359476 L976.908042,51.4532697 Z M588.047469,16.5640919 C592.63026,16.5640919 596.195843,17.6883749 598.744218,19.9369408 C601.206933,22.0998471 602.438291,24.8516636 602.438291,28.1923902 C602.438291,33.6960231 600.446704,37.2080689 596.46353,38.7285278 C595.778253,39.0069217 594.975193,39.2531932 594.054352,39.4673424 C596.752631,39.9813003 598.979782,41.2769026 600.735805,43.3541493 C602.598903,45.5598854 603.530451,48.4508988 603.530451,52.0271894 C603.530451,57.1239389 601.924333,60.7323519 598.712096,62.8524284 C596.249381,64.437132 592.780165,65.2294839 588.304448,65.2294839 L572.403874,65.2294839 L572.403874,16.5640919 L588.047469,16.5640919 Z M610.534413,16.5640919 L620.395981,34.9702104 L630.257549,16.5640919 L638.352386,16.5640919 L624.218543,42.7117018 L624.218543,65.2294839 L616.573419,65.2294839 L616.573419,42.7117018 L602.439576,16.5640919 L610.534413,16.5640919 Z M588.304448,43.3220269 L580.081121,43.3220269 L580.081121,58.7728873 L588.304448,58.7728873 C591.302536,58.7728873 593.422612,58.0661951 594.664677,56.6528108 C595.714008,55.4749906 596.238673,53.7296751 596.238673,51.4168644 C596.238673,49.510937 595.521274,47.7120842 594.086474,46.020306 C592.566016,44.2214533 590.638673,43.3220269 588.304448,43.3220269 Z M587.983224,23.0206884 L580.081121,23.0206884 L580.081121,36.7048185 L587.983224,36.7048185 C590.14613,36.7048185 592.019935,35.8696368 593.604639,34.1992735 C594.846704,32.9143787 595.467736,31.211893 595.467736,29.0918166 C595.467736,25.0443978 592.972899,23.0206884 587.983224,23.0206884 Z" id="Combined-Shape" fill="#1F2937" fill-rule="nonzero"></path>
    </g>
</svg>