<?xml version="1.0" encoding="UTF-8"?>
<svg width="679px" height="84px" viewBox="0 0 679 84" version="1.1" xmlns="http://www.w3.org/2000/svg" xmlns:xlink="http://www.w3.org/1999/xlink">
    <title>chicago camps logo</title>
    <g id="Page-1" stroke="none" stroke-width="1" fill="none" fill-rule="evenodd">
        <path d="M24.1419532,65.0136986 C10.8419532,65.0136986 0.808619817,54.8626068 0.808619817,41.9430354 L0.808619817,41.7123288 C0.808619817,29.023464 10.6086198,18.4109589 24.6086198,18.4109589 C33.2419532,18.4109589 38.3752865,21.1794385 42.5752865,25.3321579 L36.2752865,32.4840635 C32.7752865,29.2541706 29.2752865,27.4085176 24.6086198,27.4085176 C16.9086198,27.4085176 11.5419532,33.6375966 11.5419532,41.4816221 L11.5419532,41.7123288 C11.5419532,49.3256476 16.9086198,55.7854333 24.6086198,55.7854333 C29.7419532,55.7854333 33.0086198,53.7090736 36.5086198,50.4791808 L42.8086198,56.9389665 C38.1419532,62.0145124 32.7752865,65.0136986 24.1419532,65.0136986 Z M80.6661541,65.0136986 L80.6661541,47.0630137 L62.4853321,47.0630137 L62.4853321,65.0136986 L52.5894417,65.0136986 L52.5894417,20.1369863 L62.4853321,20.1369863 L62.4853321,37.8575342 L80.6661541,37.8575342 L80.6661541,20.1369863 L90.5620445,20.1369863 L90.5620445,65.0136986 L80.6661541,65.0136986 Z M105.520949,65.0136986 L105.520949,20.1369863 L115.301771,20.1369863 L115.301771,65.0136986 L105.520949,65.0136986 Z M150.717296,65.0136986 C137.417296,65.0136986 127.383962,54.8626068 127.383962,41.9430354 L127.383962,41.7123288 C127.383962,29.023464 137.183962,18.4109589 151.183962,18.4109589 C159.817296,18.4109589 164.950629,21.1794385 169.150629,25.3321579 L162.850629,32.4840635 C159.350629,29.2541706 155.850629,27.4085176 151.183962,27.4085176 C143.483962,27.4085176 138.117296,33.6375966 138.117296,41.4816221 L138.117296,41.7123288 C138.117296,49.3256476 143.483962,55.7854333 151.183962,55.7854333 C156.317296,55.7854333 159.583962,53.7090736 163.083962,50.4791808 L169.383962,56.9389665 C164.717296,62.0145124 159.350629,65.0136986 150.717296,65.0136986 Z M214.29419,64.4383562 L210.071288,54.3639922 L190.833623,54.3639922 L186.610721,64.4383562 L176.288072,64.4383562 L195.760342,19.5616438 L205.144569,19.5616438 L224.616839,64.4383562 L214.29419,64.4383562 Z M200.452455,31.2387476 L194.352708,45.6634051 L206.552203,45.6634051 L200.452455,31.2387476 Z M253.198368,65.0136986 C238.858112,65.0136986 229.219579,55.0933134 229.219579,41.9430354 L229.219579,41.7123288 C229.219579,29.023464 239.328284,18.4109589 253.198368,18.4109589 C261.426384,18.4109589 266.363193,20.4873186 271.300003,24.640038 L264.952676,32.2533568 C261.426384,29.2541706 258.370264,27.6392242 252.963282,27.6392242 C245.675611,27.6392242 239.798456,34.0990099 239.798456,41.7123288 L239.798456,41.9430354 C239.798456,50.2484742 245.440524,56.2468466 253.66854,56.2468466 C257.429919,56.2468466 260.486039,55.3240201 263.071987,53.478367 L263.071987,47.0185813 L252.963282,47.0185813 L252.963282,38.4824359 L272.945606,38.4824359 L272.945606,58.0924997 C268.008797,61.7838058 261.66147,65.0136986 253.198368,65.0136986 Z M306.774075,65.0136986 C292.765737,65.0136986 282.726428,54.6319002 282.726428,41.9430354 L282.726428,41.7123288 C282.726428,29.023464 292.999209,18.4109589 307.007548,18.4109589 C321.015886,18.4109589 331.055195,28.7927574 331.055195,41.4816221 L331.055195,41.7123288 C331.055195,54.6319002 320.782414,65.0136986 306.774075,65.0136986 Z M320.548941,41.7123288 C320.548941,34.0990099 314.945606,27.6392242 306.774075,27.6392242 C298.602545,27.6392242 293.232682,33.8683033 293.232682,41.7123288 L293.232682,41.9430354 C293.232682,49.5563543 298.836017,56.01614 307.007548,56.01614 C314.945606,55.7854333 320.548941,49.5563543 320.548941,41.7123288 L320.548941,41.7123288 Z M459.6762,65.0136986 C446.3762,65.0136986 436.342866,54.8626068 436.342866,41.9430354 L436.342866,41.7123288 C436.342866,29.023464 446.142866,18.4109589 460.142866,18.4109589 C468.7762,18.4109589 473.909533,21.1794385 478.109533,25.3321579 L471.809533,32.4840635 C468.309533,29.2541706 464.809533,27.4085176 460.142866,27.4085176 C452.442866,27.4085176 447.0762,33.6375966 447.0762,41.4816221 L447.0762,41.7123288 C447.0762,49.3256476 452.442866,55.7854333 460.142866,55.7854333 C465.2762,55.7854333 468.542866,53.7090736 472.042866,50.4791808 L478.342866,56.9389665 C473.6762,62.0145124 468.542866,65.0136986 459.6762,65.0136986 Z M520.951724,64.4383562 L516.728822,54.3639922 L497.491157,54.3639922 L493.268255,64.4383562 L482.945606,64.4383562 L502.417876,19.5616438 L511.802103,19.5616438 L531.274373,64.4383562 L520.951724,64.4383562 Z M507.10999,31.2387476 L501.010242,45.6634051 L513.209737,45.6634051 L507.10999,31.2387476 Z M576.216331,64.4383562 L576.216331,35.3600783 L563.493551,54.3639922 L563.262228,54.3639922 L550.770772,35.3600783 L550.770772,64.2093933 L541.055195,64.2093933 L541.055195,19.5616438 L551.696065,19.5616438 L563.493551,38.3365949 L575.291038,19.5616438 L585.931907,19.5616438 L585.931907,64.2093933 L576.216331,64.2093933 L576.216331,64.4383562 Z M618.381223,51.090411 L610.786702,51.090411 L610.786702,64.4383562 L600.890812,64.4383562 L600.890812,19.5616438 L619.301771,19.5616438 C629.888072,19.5616438 636.562044,26.0054795 636.562044,34.9808219 L636.562044,35.2109589 C636.331907,45.7972603 628.277113,51.090411 618.381223,51.090411 Z M626.436017,35.4410959 C626.436017,31.0684932 623.444236,28.7671233 618.381223,28.7671233 L610.786702,28.7671233 L610.786702,42.5753425 L618.61136,42.5753425 C623.444236,42.3452055 626.436017,39.3534247 626.436017,35.4410959 L626.436017,35.4410959 Z M662.229567,65.0136986 C655.239656,65.0136986 648.482741,62.6951544 642.890812,57.8262114 L648.715738,50.8705786 C652.909685,54.1165406 657.103632,56.4350848 662.229567,56.4350848 C666.423515,56.4350848 668.753485,54.8121039 668.753485,52.2617052 L668.753485,52.0298507 C668.753485,49.4794521 667.122506,48.3201799 659.6666,46.2334901 C650.579715,43.9149458 644.521791,41.3645471 644.521791,32.3222245 L644.521791,32.0903701 C644.521791,23.9754651 651.045709,18.4109589 660.365591,18.4109589 C666.889509,18.4109589 672.714435,20.4976487 677.141379,24.2073196 L672.015444,31.6266612 C668.054494,28.8444081 664.093544,27.2214271 660.132594,27.2214271 C656.404641,27.2214271 654.307667,29.0762625 654.307667,31.1629524 L654.307667,31.3948068 C654.307667,34.4089143 656.171644,35.336332 664.093544,37.4230219 C673.413426,39.7415661 678.539362,42.9875281 678.539362,50.8705786 L678.539362,51.102433 C679.005356,60.1447557 672.248441,65.0136986 662.229567,65.0136986 Z M379.746601,48.3475473 L364.975695,52.6438356 L376.081843,42 L364.975695,31.3561644 L379.746601,35.6524527 L383.41136,20.7123288 L387.076118,35.6524527 L401.847024,31.3561644 L390.740876,42 L401.847024,52.6438356 L387.076118,48.3475473 L383.41136,63.2876712 L379.746601,48.3475473 Z M366.151086,0 L401.246976,0 L401.246976,16.109589 L366.151086,16.109589 Z M366.151086,67.890411 L401.246976,67.890411 L401.246976,84 L366.151086,84 Z" id="chicago-camps-logo" fill="#1F2937" fill-rule="nonzero"></path>
    </g>
</svg>