<?xml version="1.0" encoding="UTF-8"?>
<svg width="222px" height="84px" viewBox="0 0 222 84" version="1.1" xmlns="http://www.w3.org/2000/svg" xmlns:xlink="http://www.w3.org/1999/xlink">
    <title>Combined Shape</title>
    <g id="Page-1" stroke="none" stroke-width="1" fill="none" fill-rule="evenodd">
        <path d="M44.5327549,1.69457701 C51.529718,5.77613883 62.754013,12.1900217 69.8238612,16.2715835 C73.832538,18.5310195 76.237744,22.8312364 76.237744,27.4229935 L76.237744,56.5770065 C76.237744,61.1687636 73.7596529,65.3960954 69.8238612,67.7284165 C62.826898,71.8099783 51.602603,78.2238612 44.5327549,82.305423 C40.5240781,84.564859 35.6407809,84.564859 31.7049892,82.305423 C28.2065076,80.2646421 23.6511931,77.6407809 19.0867679,75.0169197 L17.2629954,73.9687574 C13.3211974,71.7037281 9.47748373,69.4970933 6.41388286,67.7284165 C2.40520607,65.4689805 0,61.1687636 0,56.5770065 L0,27.4229935 C0,22.8312364 2.47809111,18.6039046 6.41388286,16.2715835 C13.483731,12.1900217 24.635141,5.7032538 31.7049892,1.69457701 C35.7136659,-0.564859002 40.5969631,-0.564859002 44.5327549,1.69457701 Z M50.9466377,55.7023861 L50.2906725,55.7023861 L50.1380694,55.7137744 L49.8601952,55.7638829 C49.8123644,55.7707158 49.762256,55.7752711 49.7075922,55.7752711 L49.1245119,56.0668113 L48.6143167,56.7227766 C48.3956616,57.0143167 48.2498915,57.1600868 48.1770065,57.4516269 C48.1186985,57.626551 48.1070369,57.7548286 48.1047046,57.9110941 L48.1041215,60.3670282 L28.2065076,60.3670282 L28.2065076,58.0347072 C28.2065076,57.8160521 28.1336226,57.670282 27.9878525,57.4516269 C27.9149675,57.1600868 27.6963124,57.0143167 27.5505423,56.7227766 C27.3318872,56.5041215 27.1861171,56.3583514 26.894577,56.1396963 C26.6759219,56.0668113 26.4572668,55.9210412 26.2386117,55.8481562 C25.9470716,55.7752711 25.6555315,55.7752711 25.4368764,55.7752711 C25.1453362,55.7752711 24.8537961,55.8481562 24.635141,55.9939262 C24.3436009,56.0668113 24.0520607,56.2854664 23.8334056,56.5770065 C23.5418655,56.7956616 23.3960954,57.0143167 23.2503254,57.3787419 C23.1774403,57.597397 23.0316703,57.8160521 23.0316703,58.1075922 L23.0316703,63.5010846 C23.0316703,63.5010846 23.1045553,63.7197397 23.1045553,63.7926247 C23.1045553,63.8655098 23.1045553,63.8655098 23.1774403,64.0112798 C23.3960954,64.375705 23.5418655,64.6672451 23.8334056,64.9587852 C24.1249458,65.1774403 24.4164859,65.3232104 24.635141,65.3960954 C24.708026,65.3960954 24.8537961,65.4689805 24.9266811,65.4689805 L50.8008677,65.4689805 C50.8008677,65.4689805 51.0195228,65.3960954 51.0924078,65.3960954 C51.1652928,65.3960954 51.1652928,65.3960954 51.3110629,65.3232104 C51.6754881,65.1045553 51.9670282,64.9587852 52.2585683,64.6672451 C52.4772234,64.375705 52.6229935,64.2299349 52.6958785,63.8655098 C52.6958785,63.7926247 52.7687636,63.6468547 52.7687636,63.5739696 L52.7687636,62.9908894 C52.7687636,62.9180043 53.0603037,58.3262473 53.0603037,58.3262473 L53.0603037,58.0347072 L53.0489154,57.8821041 L52.9988069,57.6042299 C52.991974,57.5563991 52.9874187,57.5062907 52.9874187,57.4516269 C52.9145336,57.0872017 52.6229935,56.7956616 52.3314534,56.5041215 C52.0399132,56.2125813 51.7483731,56.0668113 51.529718,55.9210412 C51.3110629,55.8481562 51.1652928,55.8481562 50.9466377,55.7023861 Z M27.4415063,43.1667436 L27.1861171,43.1661605 L26.967462,43.2390456 C26.7488069,43.4577007 26.5301518,43.6034707 26.3114967,43.8221258 C25.7284165,44.259436 25.2911063,44.7696312 24.9266811,45.2069414 C24.708026,45.5713666 24.4164859,45.9357918 24.1249458,46.373102 C23.8334056,46.8104121 23.6876356,47.2477223 23.4689805,47.8308026 L23.1774403,49.2156182 C23.1045553,49.5800434 23.1045553,49.8715835 23.1045553,50.1631236 L23.1045553,50.3817787 C23.1045553,50.3817787 23.3960954,51.1835141 23.6147505,51.5479393 C23.9062907,51.9852495 24.2707158,52.3496746 24.635141,52.6412148 C24.7809111,52.7869848 25.0724512,52.9327549 25.3639913,53.0056399 C25.5826464,53.0785249 25.8741866,53.0785249 26.1657267,53.0785249 C26.3843818,53.0785249 26.6759219,52.9327549 26.967462,52.8598698 C27.1861171,52.7869848 27.4776573,52.6412148 27.7691974,52.4225597 C27.9878525,52.2767896 28.1336226,51.9852495 28.3522777,51.6937093 C28.4980477,51.4750542 28.5709328,51.3292842 28.5709328,51.037744 L28.5709328,50.2360087 C28.5709328,50.0173536 28.5709328,49.7986985 28.6438178,49.5800434 C28.6438178,49.5618221 28.6483731,49.5390456 28.6552061,49.5139913 L28.7053145,49.3545553 L28.7167028,49.2885033 C28.9353579,48.705423 29.2997831,48.3409978 29.6642082,47.9765727 C29.9557484,47.6850325 30.3201735,47.4663774 30.6845987,47.2477223 C31.0490239,46.9561822 31.413449,46.8104121 31.8507592,46.591757 C31.9236443,46.518872 32.5067245,46.3002169 32.5067245,46.3002169 C32.5796095,46.3002169 32.7982646,46.0086768 32.7982646,46.0086768 L32.7982646,45.7900217 L32.6524946,45.3527115 L32.4338395,45.2798265 L31.6321041,44.9882863 L30.2472885,44.4052061 C29.6642082,44.259436 29.081128,43.9678959 28.6438178,43.6763557 C28.3522777,43.6034707 28.2065076,43.5305857 27.9149675,43.3119306 L27.8420824,43.2390456 L27.6234273,43.2390456 C27.4776573,43.1661605 27.4776573,43.1661605 27.4047722,43.1661605 Z M25.9470716,18.6039046 C25.8741866,18.6767896 25.7284165,18.6767896 25.6555315,18.6767896 C25.5097614,18.7496746 25.5097614,18.7496746 25.4368764,18.7496746 C25.3639913,18.8225597 25.2182213,18.9683297 24.9995662,19.0412148 C24.635141,19.3327549 24.4164859,19.624295 24.1978308,19.9887202 C24.1978308,20.0069414 24.1932755,20.029718 24.1864425,20.0547722 L24.1363341,20.2142082 L24.1249458,20.2802603 C24.0520607,20.4260304 24.0520607,20.4989154 24.0520607,20.4989154 L24.0520607,20.5718004 C23.9791757,20.6446855 23.9791757,20.7904555 23.9791757,20.8633406 L23.9791757,35.8047722 C24.1249458,36.1691974 24.1249458,36.5336226 24.1978308,36.8980477 C24.2707158,37.2624729 24.3436009,37.6997831 24.562256,38.0642082 C24.7809111,38.5744035 24.9266811,38.9388286 25.2182213,39.3761388 C25.6555315,40.0321041 26.0928416,40.6151844 26.6759219,41.1982646 C27.1861171,41.7084599 27.6963124,42.1457701 28.2793926,42.5101952 C28.4980477,42.5830803 28.7895879,42.7288503 29.081128,42.9475054 L29.5184382,43.0932755 C30.0286334,43.3119306 30.3930586,43.4577007 30.8303688,43.6763557 C31.9236443,44.0407809 33.0898048,44.4052061 34.2559653,44.6238612 C34.9848156,44.8425163 35.7136659,44.8425163 36.4425163,44.9154013 C36.9527115,44.9882863 37.3171367,44.9882863 37.7544469,44.9882863 L40.0856017,44.9888694 C40.4541085,44.9912017 40.7573102,45.0028633 41.1071584,45.0611714 C41.6902386,45.1340564 42.2733189,45.2798265 42.7106291,45.3527115 C43.0750542,45.4255965 43.5123644,45.6442516 43.8767896,45.7171367 C44.1683297,45.7900217 44.5327549,45.8629067 44.824295,46.0815618 C45.1158351,46.1544469 45.2616052,46.373102 45.5531453,46.445987 C45.7718004,46.518872 45.9175705,46.7375271 46.1362256,46.8104121 C46.2091106,46.8832972 46.4277657,47.0290672 46.5006508,47.1019523 L47.2295011,47.8308026 C47.5210412,48.1952278 47.7396963,48.632538 47.9583514,49.2156182 C48.0312364,49.2885033 48.0312364,49.5071584 48.0312364,49.5071584 L48.0312364,50.3817787 C48.1770065,50.6733189 48.1770065,50.891974 48.2498915,51.1106291 C48.3227766,51.4021692 48.3956616,51.6208243 48.6143167,51.8394794 C48.8329718,52.0581345 48.9787419,52.2039046 49.270282,52.4225597 C49.4889371,52.4954447 49.6347072,52.6412148 49.9262473,52.7140998 C50.1449024,52.7869848 50.5093275,52.7869848 50.7279826,52.7869848 C50.9466377,52.7869848 51.2381779,52.6412148 51.529718,52.5683297 C51.8212581,52.3496746 52.0399132,52.2039046 52.2585683,51.9852495 C52.5501085,51.8394794 52.6958785,51.5479393 52.8416486,51.2563991 C52.9874187,50.964859 53.0603037,50.8190889 53.0603037,50.5275488 L53.0603037,49.3613883 C53.0603037,48.778308 52.9874187,48.1952278 52.7687636,47.7579176 C52.5501085,47.3206074 52.4043384,46.7375271 52.1127983,46.3002169 C51.8941432,45.9357918 51.7483731,45.5713666 51.456833,45.2069414 C51.3839479,45.0611714 51.1652928,44.9882863 51.0924078,44.7696312 L50.6550976,44.332321 C50.4364425,44.0407809 50.1449024,43.8950108 49.8533623,43.6034707 C49.7075922,43.3848156 49.4160521,43.2390456 49.1245119,43.0203905 C48.9058568,42.9475054 48.7600868,42.7288503 48.5414317,42.6559653 C47.1566161,41.7813449 45.6260304,41.1253796 43.9496746,40.6880694 C43.7310195,40.5422993 43.4394794,40.5422993 43.1479393,40.4694143 C42.7835141,40.3236443 42.4190889,40.3236443 42.0546638,40.2507592 C41.1071584,40.0321041 40.305423,39.9592191 39.3579176,39.9592191 L37.973102,39.9592191 C37.6086768,39.8863341 37.3171367,39.8863341 36.9527115,39.8863341 C36.3696312,39.8863341 35.859436,39.740564 35.2763557,39.667679 C34.7661605,39.5947939 34.4017354,39.4490239 33.9644252,39.3761388 C33.8733189,39.3579176 33.7867679,39.335141 33.7024946,39.3100868 L33.2059653,39.1506508 L32.9440347,39.0845987 C32.6524946,39.0117137 32.4338395,38.8659436 32.2151844,38.7930586 L31.6321041,38.5015184 C31.5592191,38.4286334 31.340564,38.2828633 31.267679,38.2099783 C31.1947939,38.0642082 31.0490239,38.0642082 30.9761388,37.9913232 C30.4659436,37.626898 30.0286334,37.1895879 29.6642082,36.6065076 C29.6642082,36.5336226 29.5913232,36.3878525 29.5913232,36.3149675 C29.4455531,36.2420824 29.3726681,36.0963124 29.3726681,36.0234273 C29.226898,35.8776573 29.154013,35.8047722 29.154013,35.5861171 C29.081128,35.4403471 29.081128,35.367462 29.081128,35.1488069 L29.081128,20.9362256 C29.008243,20.8633406 29.008243,20.7175705 29.008243,20.6446855 C28.9353579,20.3531453 28.7895879,20.2073753 28.7167028,19.9887202 C28.5709328,19.8429501 28.3522777,19.1869848 27.6963124,18.8954447 C27.1909761,18.6427766 26.5214056,18.6090875 26.3518373,18.6045956 Z M51.0195228,18.8225597 L50.2177874,18.8225597 C50.1995662,18.8225597 50.1767896,18.827115 50.1517354,18.8339479 L49.9922993,18.8840564 L49.9262473,18.8954447 C49.7804772,18.9683297 49.7804772,18.9683297 49.7075922,18.9683297 C49.343167,19.1869848 49.0516269,19.3327549 48.7600868,19.624295 C48.4685466,19.7700651 48.2498915,20.1344902 48.1770065,20.4260304 C48.1770065,20.4989154 48.1041215,20.6446855 48.1041215,20.7175705 L48.1041215,35.0759219 C48.0312364,35.5861171 47.7396963,36.0234273 47.4481562,36.3878525 L47.2295011,36.6065076 C47.083731,36.6065076 47.083731,36.7522777 47.010846,36.8251627 L46.7193059,37.1167028 C46.6464208,37.1895879 46.4277657,37.3353579 46.3548807,37.408243 C46.2091106,37.554013 46.1362256,37.6997831 45.9175705,37.7726681 C45.6989154,37.8455531 45.4802603,38.0642082 45.2616052,38.1370933 C44.89718,38.2828633 44.6056399,38.5015184 44.3140998,38.5744035 C44.1683297,38.6472885 44.1683297,38.6472885 44.0954447,38.6472885 L44.0225597,38.6472885 C43.8767896,38.6472885 43.8767896,38.7201735 43.8039046,38.7201735 L43.7310195,38.9388286 L43.7310195,39.1574837 L43.8039046,39.3761388 L43.8767896,39.5947939 L44.2412148,39.667679 L45.1158351,39.8863341 C45.7718004,40.1778742 46.2819957,40.3236443 46.937961,40.6151844 L48.0312364,41.1982646 L48.6143167,41.4898048 L48.7600868,41.4898048 C48.8329718,41.4898048 49.0516269,41.5626898 49.0516269,41.5626898 L49.270282,41.5626898 C49.4160521,41.5626898 49.4160521,41.4898048 49.4889371,41.4898048 C49.8533623,41.1982646 50.1449024,41.0524946 50.4364425,40.7609544 C50.8737527,40.2507592 51.456833,39.740564 51.8212581,39.1574837 C52.1856833,38.7201735 52.4043384,38.2099783 52.6229935,37.7726681 C52.7687636,37.408243 52.9874187,36.8251627 53.0603037,36.3878525 C53.2060738,36.0234273 53.2789588,35.6590022 53.2789588,35.294577 L53.2789588,20.7904555 C53.2060738,20.7175705 53.2060738,20.5718004 53.2060738,20.4989154 C53.1331887,20.3531453 53.1331887,20.3531453 53.1331887,20.2802603 C53.0603037,20.2073753 52.9145336,20.0616052 52.8416486,19.8429501 C52.5501085,19.4785249 52.2585683,19.2598698 51.8941432,19.0412148 C51.8759219,19.0412148 51.8531453,19.0366594 51.8280911,19.0298265 L51.6686551,18.979718 L51.602603,18.9683297 C51.456833,18.8954447 51.3839479,18.8954447 51.3839479,18.8954447 L51.3110629,18.8954447 C51.2381779,18.8225597 51.0924078,18.8225597 51.0195228,18.8225597 Z M123.758785,25.1635575 C123.467245,25.0906725 123.10282,25.0177874 122.66551,24.9449024 C122.2282,24.8720174 121.645119,24.8720174 120.916269,24.8720174 C120.187419,24.8720174 119.604338,24.8720174 119.167028,24.9449024 C118.729718,25.0177874 118.292408,25.0906725 118.073753,25.1635575 C117.782213,25.2364425 117.636443,25.3822126 117.490672,25.5279826 C117.344902,25.6737527 117.344902,25.8195228 117.344902,26.0381779 L117.344902,47.5392625 C117.344902,48.778308 117.199132,49.9444685 116.834707,50.891974 C116.470282,51.9123644 116.032972,52.7140998 115.377007,53.3700651 C114.721041,54.0260304 113.992191,54.5362256 113.11757,54.9006508 C112.24295,55.2650759 111.22256,55.410846 110.056399,55.410846 C108.963124,55.410846 107.942733,55.2650759 106.995228,54.9006508 C106.047722,54.5362256 105.318872,54.0260304 104.662907,53.3700651 C104.006941,52.7140998 103.496746,51.8394794 103.132321,50.8190889 C102.767896,49.7986985 102.622126,48.5596529 102.622126,47.1019523 L102.622126,26.0381779 C102.622126,25.8195228 102.549241,25.6737527 102.476356,25.5279826 C102.330586,25.3822126 102.184816,25.2364425 101.893275,25.1635575 C101.601735,25.0906725 101.23731,25.0177874 100.8,24.9449024 C100.36269,24.8720174 99.7796095,24.8720174 99.0507592,24.8720174 C98.3219089,24.8720174 97.7388286,24.8720174 97.3015184,24.9449024 C96.8642082,25.0177874 96.4997831,25.0906725 96.208243,25.1635575 C95.9167028,25.2364425 95.6980477,25.3822126 95.6251627,25.5279826 C95.4793926,25.6737527 95.4793926,25.8195228 95.4793926,26.0381779 L95.4793926,47.7579176 C95.4793926,50.0173536 95.7709328,52.0581345 96.426898,53.7344902 C97.0828633,55.410846 98.0303688,56.8685466 99.2694143,58.0347072 C100.50846,59.2008677 102.039046,60.002603 103.788286,60.5856833 C105.537527,61.1687636 107.578308,61.4603037 109.837744,61.4603037 C112.24295,61.4603037 114.356616,61.1687636 116.178742,60.5127983 C118.000868,59.856833 119.531453,58.9822126 120.843384,57.8160521 C122.08243,56.6498915 123.029935,55.1921909 123.6859,53.4429501 C124.341866,51.6937093 124.633406,49.7258134 124.633406,47.5392625 L124.633406,26.0381779 C124.633406,25.8195228 124.560521,25.6737527 124.487636,25.5279826 C124.196095,25.3822126 123.97744,25.3093275 123.758785,25.1635575 Z M156.921475,58.0347072 L148.466811,42.3644252 L156.41128,27.7874187 C156.70282,27.1314534 156.921475,26.6212581 157.067245,26.1839479 C157.14013,25.8195228 157.14013,25.5279826 156.921475,25.3093275 C156.70282,25.0906725 156.338395,25.0177874 155.8282,24.9449024 C155.318004,24.8720174 154.589154,24.8720174 153.641649,24.8720174 C152.839913,24.8720174 152.183948,24.8720174 151.673753,24.9449024 C151.236443,25.0177874 150.872017,25.0177874 150.580477,25.0906725 C150.288937,25.1635575 150.143167,25.3093275 149.997397,25.4550976 C149.851627,25.6008677 149.778742,25.8195228 149.632972,26.0381779 L143.510629,37.8455531 L137.242516,26.0381779 C137.096746,25.8195228 137.023861,25.6008677 136.878091,25.4550976 C136.732321,25.3093275 136.586551,25.1635575 136.222126,25.0906725 C135.930586,25.0177874 135.493275,24.9449024 135.055965,24.9449024 C134.54577,24.8720174 133.889805,24.8720174 133.015184,24.8720174 C131.994794,24.8720174 131.120174,24.8720174 130.609978,24.9449024 C130.026898,25.0177874 129.662473,25.0906725 129.443818,25.3093275 C129.225163,25.5279826 129.152278,25.8195228 129.298048,26.1839479 C129.443818,26.5483731 129.662473,27.1314534 129.954013,27.7874187 L137.898482,42.4373102 L129.370933,58.0347072 C129.006508,58.6906725 128.787852,59.2008677 128.714967,59.5652928 C128.569197,59.929718 128.642082,60.2212581 128.860738,60.4399132 C129.079393,60.6585683 129.370933,60.8043384 129.954013,60.8043384 C130.464208,60.8772234 131.193059,60.8772234 132.140564,60.8772234 C132.942299,60.8772234 133.67115,60.8772234 134.10846,60.8043384 C134.618655,60.7314534 134.98308,60.7314534 135.27462,60.6585683 C135.566161,60.5856833 135.784816,60.4399132 135.930586,60.2941432 C136.076356,60.1483731 136.149241,59.929718 136.295011,59.7110629 L143.000434,46.8104121 L149.705857,59.7110629 C149.778742,59.929718 149.924512,60.1483731 150.070282,60.2941432 C150.216052,60.4399132 150.434707,60.5856833 150.726247,60.6585683 C151.017787,60.7314534 151.382213,60.8043384 151.892408,60.8043384 C152.402603,60.8043384 153.058568,60.8772234 153.933189,60.8772234 C154.953579,60.8772234 155.755315,60.8772234 156.338395,60.8043384 C156.921475,60.7314534 157.2859,60.5856833 157.504555,60.4399132 C157.72321,60.2212581 157.796095,59.929718 157.650325,59.5652928 C157.43167,59.2008677 157.213015,58.6906725 156.921475,58.0347072 Z M186.804338,29.4637744 C185.273753,28.0060738 183.451627,26.9127983 181.192191,26.1839479 C179.00564,25.4550976 176.236009,25.0906725 173.101952,25.0906725 L163.918438,25.0906725 C163.335358,25.0906725 162.825163,25.2364425 162.387852,25.6008677 C161.950542,25.9652928 161.731887,26.5483731 161.731887,27.3501085 L161.731887,58.4720174 C161.731887,59.2737527 161.950542,59.856833 162.387852,60.2212581 C162.825163,60.5856833 163.335358,60.7314534 163.918438,60.7314534 L172.518872,60.7314534 C175.652928,60.7314534 178.42256,60.3670282 180.681996,59.7110629 C182.941432,59.0550976 184.909328,57.9618221 186.512798,56.5041215 C188.116269,55.0464208 189.355315,53.15141 190.229935,50.8190889 C191.104555,48.4867679 191.541866,45.7171367 191.541866,42.4373102 C191.541866,39.5947939 191.17744,37.1167028 190.375705,34.9301518 C189.501085,32.7436009 188.334924,30.9214751 186.804338,29.4637744 Z M183.305857,48.0494577 C182.868547,49.5800434 182.139696,50.891974 181.265076,51.9123644 C180.31757,52.9327549 179.224295,53.7344902 177.839479,54.2446855 C176.454664,54.7548807 174.778308,55.0464208 172.810412,55.0464208 L169.02039,55.0464208 L169.02039,30.775705 L172.664642,30.775705 C174.924078,30.775705 176.673319,31.0672451 178.058134,31.6503254 C179.44295,32.2334056 180.536226,33.108026 181.410846,34.1284165 C182.285466,35.221692 182.941432,36.4607375 183.305857,37.9184382 C183.670282,39.3761388 183.888937,40.9796095 183.888937,42.6559653 C183.961822,44.6967462 183.743167,46.518872 183.305857,48.0494577 Z M221.643384,59.5652928 C221.570499,59.2008677 221.351844,58.6906725 220.987419,58.0347072 L212.532755,42.3644252 L220.477223,27.7874187 C220.768764,27.1314534 220.987419,26.6212581 221.133189,26.1839479 C221.206074,25.8195228 221.206074,25.5279826 220.987419,25.3093275 C220.768764,25.0906725 220.404338,25.0177874 219.894143,24.9449024 C219.383948,24.8720174 218.655098,24.8720174 217.707592,24.8720174 C216.905857,24.8720174 216.249892,24.8720174 215.739696,24.9449024 C215.302386,25.0177874 214.937961,25.0177874 214.646421,25.0906725 C214.354881,25.1635575 214.209111,25.3093275 214.063341,25.4550976 C213.91757,25.6008677 213.844685,25.8195228 213.698915,26.0381779 L207.576573,37.8455531 L201.30846,26.0381779 C201.16269,25.8195228 201.089805,25.6008677 200.944035,25.4550976 C200.798265,25.3093275 200.652495,25.1635575 200.288069,25.0906725 C199.996529,25.0177874 199.559219,24.9449024 199.121909,24.9449024 C198.611714,24.8720174 197.955748,24.8720174 197.081128,24.8720174 C196.060738,24.8720174 195.186117,24.8720174 194.675922,24.9449024 C194.092842,25.0177874 193.728416,25.0906725 193.509761,25.3093275 C193.291106,25.5279826 193.218221,25.8195228 193.363991,26.1839479 C193.509761,26.5483731 193.728416,27.1314534 194.019957,27.7874187 L201.964425,42.4373102 L193.436876,58.0347072 C193.072451,58.6906725 192.853796,59.2008677 192.780911,59.5652928 C192.635141,59.929718 192.708026,60.2212581 192.926681,60.4399132 C193.145336,60.6585683 193.436876,60.8043384 194.019957,60.8043384 C194.530152,60.8772234 195.259002,60.8772234 196.206508,60.8772234 C197.008243,60.8772234 197.737093,60.8772234 198.174403,60.8043384 C198.684599,60.7314534 199.049024,60.7314534 199.340564,60.6585683 C199.632104,60.5856833 199.850759,60.4399132 199.996529,60.2941432 C200.142299,60.1483731 200.215184,59.929718 200.360954,59.7110629 L207.066377,46.8104121 L213.7718,59.7110629 C213.844685,59.929718 213.990456,60.1483731 214.136226,60.2941432 C214.281996,60.4399132 214.500651,60.5856833 214.792191,60.6585683 C215.083731,60.7314534 215.448156,60.8043384 215.958351,60.8043384 C216.468547,60.8043384 217.124512,60.8772234 217.999132,60.8772234 C219.019523,60.8772234 219.821258,60.8772234 220.404338,60.8043384 C220.987419,60.7314534 221.351844,60.5856833 221.570499,60.4399132 C221.716269,60.2941432 221.716269,60.002603 221.643384,59.5652928 Z" id="Combined-Shape" fill="#1F2937" fill-rule="nonzero"></path>
    </g>
</svg>